<?xml version="1.0" encoding="UTF-8"?>
<svg version="1.1" xmlns="http://www.w3.org/2000/svg" width="1456" height="360">
<path d="M0 0 C480.48 0 960.96 0 1456 0 C1456 118.8 1456 237.6 1456 360 C975.52 360 495.04 360 0 360 C0 241.2 0 122.4 0 0 Z " fill="#FBFCFC" transform="translate(0,0)"/>
<path d="M0 0 C4.14416332 3.29365916 8.06421566 6.80475191 11.90917969 10.44042969 C12.70582031 11.18035156 13.50246094 11.92027344 14.32324219 12.68261719 C15.91212676 14.20819959 17.42395607 15.8137562 18.90917969 17.44042969 C18.90917969 18.10042969 18.90917969 18.76042969 18.90917969 19.44042969 C17.1075235 19.44922905 17.1075235 19.44922905 15.26947021 19.45820618 C3.91221501 19.51558967 -7.4448516 19.58843233 -18.80191422 19.6761446 C-24.63973848 19.72074133 -30.47749466 19.76002086 -36.31542969 19.78686523 C-41.9565812 19.81300511 -47.59746924 19.8534825 -53.23845673 19.90361595 C-55.38322404 19.92021265 -57.52803684 19.93177149 -59.67285919 19.93804359 C-73.79735128 19.98350091 -86.46798779 20.45243085 -99.21582031 27.19042969 C-99.89467285 27.54186035 -100.57352539 27.89329102 -101.27294922 28.25537109 C-121.77938516 39.08187153 -134.93784303 55.50819189 -142.05566406 77.40917969 C-147.63156577 97.75993616 -143.77558115 119.05164295 -133.53222656 137.20214844 C-122.4387327 155.57174451 -105.99885883 166.92306864 -85.50488281 172.89746094 C-79.12577197 174.33224477 -72.89492935 174.6033093 -66.3918457 174.64575195 C-65.44472717 174.65565155 -64.49760864 174.66555115 -63.52178955 174.67575073 C-60.41071011 174.70718055 -57.29961542 174.73204951 -54.18847656 174.75683594 C-52.02371335 174.77742148 -49.85895401 174.79841836 -47.69419861 174.81980896 C-42.01104888 174.87486442 -36.32786386 174.92434627 -30.64465332 174.97265625 C-24.83956787 175.02299229 -19.03453332 175.07861505 -13.22949219 175.13378906 C-1.84997843 175.24116836 9.52957962 175.34265785 20.90917969 175.44042969 C19.96333842 176.72004252 19.01492043 177.99775099 18.06542969 179.2746582 C17.53755859 179.98638687 17.0096875 180.69811554 16.46582031 181.43141174 C2.7745386 199.10153432 -21.08730291 209.74829997 -42.09082031 215.44042969 C-43.31607422 215.78428711 -44.54132813 216.12814453 -45.80371094 216.48242188 C-50.03778267 217.53168607 -54.05505297 217.76288561 -58.40332031 217.77636719 C-59.17530762 217.78302399 -59.94729492 217.78968079 -60.74267578 217.79653931 C-62.36960496 217.80660308 -63.99657489 217.81135829 -65.62353516 217.81103516 C-68.05737368 217.81537012 -70.48933732 217.85164791 -72.92285156 217.88964844 C-83.55951491 217.9664133 -92.9325009 216.56662698 -103.09082031 213.44042969 C-103.92258789 213.18890137 -104.75435547 212.93737305 -105.61132812 212.67822266 C-119.64441689 208.16209523 -131.96465044 201.10894215 -143.09082031 191.44042969 C-143.8990625 190.76496094 -144.70730469 190.08949219 -145.54003906 189.39355469 C-167.37760643 170.60707601 -182.50908093 143.1391445 -186.09082031 114.44042969 C-186.38498834 109.35367198 -186.41576961 104.28468184 -186.40332031 99.19042969 C-186.41943359 97.8871875 -186.43554688 96.58394531 -186.45214844 95.24121094 C-186.46779493 63.66658199 -172.18820987 34.22811759 -150.21582031 12.00292969 C-138.81184572 0.8367631 -126.56381109 -6.95330457 -112.09082031 -13.55957031 C-111.22070312 -13.96949219 -110.35058594 -14.37941406 -109.45410156 -14.80175781 C-107.02832636 -15.86432148 -104.608159 -16.73638219 -102.09082031 -17.55957031 C-100.99125 -17.93082031 -99.89167969 -18.30207031 -98.75878906 -18.68457031 C-65.6330388 -28.6795561 -27.39083751 -20.4311852 0 0 Z " fill="#582EBF" transform="translate(399.0908203125,65.5595703125)"/>
<path d="M0 0 C215.49 0 430.98 0 653 0 C653 3.63 653 7.26 653 11 C437.51 11 222.02 11 0 11 C0 7.37 0 3.74 0 0 Z " fill="#C5F446" transform="translate(511,196)"/>
<path d="M0 0 C10.22498193 6.22468198 17.26221922 15.54095239 20.11328125 27.21484375 C23.32132327 42.66334122 21.40074983 57.36809525 13.25 70.9375 C6.64242106 79.93114911 -2.26782912 84.42792087 -13 87 C-23.83264335 88.34376642 -34.2735167 86.59984239 -43.3125 80.25 C-53.07108109 72.17533207 -58.88039234 62.51797279 -61 50 C-62.13276912 34.95253987 -59.8038892 20.54016611 -50.375 8.3125 C-37.99701759 -5.21990564 -16.14970755 -8.90163061 0 0 Z " fill="#552BB7" transform="translate(1033,83)"/>
<path d="M0 0 C2.51896049 1.119538 4.39734655 2.31981552 6.5625 4.0625 C11.83111635 8.25037454 15.51767007 7.31978819 23 8 C23 15.92 23 23.84 23 32 C19.37 31.01 15.74 30.02 12 29 C12.02707031 30.58981689 12.05414063 32.17963379 12.08203125 33.81762695 C12.07925432 39.61105086 11.49814614 45.18879933 10.6875 50.91796875 C10.55432373 51.90122635 10.42114746 52.88448395 10.28393555 53.89753723 C9.86279857 56.99517299 9.43158934 60.09130514 9 63.1875 C8.71026618 65.30524681 8.42119768 67.42308475 8.1328125 69.54101562 C7.42955167 74.69509456 6.71726297 79.8478518 6 85 C5.67 85 5.34 85 5 85 C1.91409032 66.94414547 0.45599784 48.31473924 1 30 C0.34 30 -0.32 30 -1 30 C-1.20625 30.66128906 -1.4125 31.32257813 -1.625 32.00390625 C-3.51547769 36.12321417 -6.20050007 39.39381401 -9 42.9375 C-13.79482233 49.09481476 -18.45147396 55.31597069 -22.92773438 61.70874023 C-24.51689787 63.96964341 -26.04104792 66.04104792 -28 68 C-31.93915826 68.18449222 -33.94701463 67.81874179 -37.08300781 65.38037109 C-39.34185783 63.21362452 -41.49324148 60.97932872 -43.625 58.6875 C-49.8422797 51.79903108 -49.8422797 51.79903108 -57 46 C-60.70016395 47.23338798 -61.54703034 48.63820444 -63.9375 51.6875 C-67.54078541 56.20478951 -71.22102764 60.62876484 -75 65 C-78.53669786 69.10177177 -82.02865488 73.22804539 -85.4375 77.4375 C-89.57635027 82.53782547 -93.87322875 87.48799933 -98.18969727 92.4375 C-101.48246244 96.22222083 -104.71091999 100.04449371 -107.875 103.9375 C-108.58140625 104.79988281 -109.2878125 105.66226563 -110.015625 106.55078125 C-111.31703582 108.15705012 -112.59916988 109.77917259 -113.859375 111.41796875 C-116.6907619 114.95720238 -118.25705661 116.74381262 -122.625 118.25 C-126 118 -126 118 -128.875 116.5625 C-131.09601183 113.88422102 -132.28130921 111.78296441 -132.515625 108.26171875 C-131.34429692 103.12384788 -126.57943225 99.62255794 -123 96 C-121.51912247 94.24797588 -120.06060684 92.47680708 -118.625 90.6875 C-115.33576152 86.62734625 -112.00502133 82.60944728 -108.625 78.625 C-108.16512695 78.08270752 -107.70525391 77.54041504 -107.23144531 76.98168945 C-105.35008017 74.76483383 -103.46699428 72.54944292 -101.58398438 70.33398438 C-95.31140363 62.95090524 -89.11520742 55.51454317 -83 48 C-80.82241879 45.3486854 -78.64440972 42.69792943 -76.45703125 40.0546875 C-74.58987968 37.73336393 -72.78992707 35.39570838 -71.01171875 33.0078125 C-70.49198486 32.32364258 -69.97225098 31.63947266 -69.43676758 30.93457031 C-68.41658752 29.58921483 -67.41169209 28.23209301 -66.42456055 26.86230469 C-63.82524075 23.46861291 -62.57710252 22.17257406 -58.35546875 20.91015625 C-54.7930773 21.00554042 -53.8870788 21.1129212 -51.4375 23.5625 C-50.78394531 24.19542969 -50.13039063 24.82835937 -49.45703125 25.48046875 C-48.64621094 26.31191406 -47.83539063 27.14335937 -47 28 C-45.81777338 29.1849593 -44.63405544 30.36843175 -43.44921875 31.55078125 C-41.54070488 33.45538373 -39.6366009 35.36318184 -37.74780273 37.28735352 C-37.16329346 37.88088623 -36.57878418 38.47441895 -35.9765625 39.0859375 C-35.45143066 39.6226709 -34.92629883 40.1594043 -34.38525391 40.71240234 C-33.0089621 42.11276003 -33.0089621 42.11276003 -31 43 C-30.63261719 42.19369141 -30.63261719 42.19369141 -30.2578125 41.37109375 C-23.57175596 28.76725424 -13.30709409 17.43489802 -4.65063477 6.15966797 C-3.08818991 4.11538647 -1.54032279 2.06098292 0 0 Z " fill="#562CB6" transform="translate(438,106)"/>
<path d="M0 0 C5.6758493 3.8063845 9.99230505 8.36439806 12 15 C12.495 18.96 12.495 18.96 13 23 C6.73 23 0.46 23 -6 23 C-6.66 21.02 -7.32 19.04 -8 17 C-9.61418159 15.04953058 -10.74037386 14.12981307 -13 13 C-22.36903269 11.93062696 -22.36903269 11.93062696 -30.875 15.0625 C-33.24890846 17.89325136 -33.24890846 17.89325136 -33.625 21.5625 C-32.89388933 25.58360869 -32.09931252 26.45228491 -29 29 C-26.27991442 30.17992218 -26.27991442 30.17992218 -23.23828125 30.96484375 C-22.11873047 31.29033203 -20.99917969 31.61582031 -19.84570312 31.95117188 C-18.67974609 32.27666016 -17.51378906 32.60214844 -16.3125 32.9375 C4.78074989 38.85404395 4.78074989 38.85404395 11 48 C14.43293511 54.27398486 15.17371241 59.76580091 13.2734375 66.62109375 C10.23435712 74.93532584 4.98713489 80.224986 -3 84 C-9.06876086 85.87532524 -14.60778888 86.336604 -20.9375 86.3125 C-21.77990234 86.32861328 -22.62230469 86.34472656 -23.49023438 86.36132812 C-32.6754166 86.36839909 -40.84138766 83.95631382 -47.59375 77.46875 C-53.58109099 71.01181364 -55 65.79645723 -55 57 C-49.06 57 -43.12 57 -37 57 C-36.01 59.64 -35.02 62.28 -34 65 C-29.17490072 69.7044718 -25.06231279 70.29452336 -18.57421875 70.21875 C-13.92758777 69.82389213 -10.55078964 68.35694093 -7 65.25 C-5.44718558 61.75616756 -5.90256924 59.61506602 -7 56 C-12.82514894 51.05248112 -20.09939216 49.72294772 -27.32617188 47.73242188 C-37.93594881 44.6881195 -46.25689049 40.80159737 -52.1328125 31.13671875 C-54.2713979 25.86732138 -53.78844295 19.59269379 -52.16015625 14.23828125 C-48.55270867 6.3067551 -43.08416294 1.06599657 -35.125 -2.4375 C-24.14832624 -5.96899253 -10.12989298 -5.75215028 0 0 Z " fill="#542BB5" transform="translate(1120,83)"/>
<path d="M0 0 C7.80786692 4.56638016 13.66530675 11.57551178 17 20 C17.495 23.96 17.495 23.96 18 28 C11.73 28 5.46 28 -1 28 C-2.32 25.36 -3.64 22.72 -5 20 C-11.16321734 14.08834255 -15.57441032 13.68703535 -23.83984375 13.796875 C-30.80886218 14.2448218 -34.07663753 17.79593559 -38.484375 22.76953125 C-42.33855835 28.44153819 -42.33719428 34.19937078 -42.3125 40.8125 C-42.32861328 41.66392578 -42.34472656 42.51535156 -42.36132812 43.39257812 C-42.36780095 51.8914038 -40.60389448 59.28691071 -34.65234375 65.55859375 C-29.60720719 69.95967032 -24.15873841 70.53643366 -17.72265625 70.359375 C-12.3318474 69.64781917 -7.46240631 67.24513114 -4 63 C-3.01 60.69 -2.02 58.38 -1 56 C5.27 56 11.54 56 18 56 C15.53350145 67.09924346 12.82723059 73.91698164 4 81 C-6.94166763 87.86025193 -19.38718254 90.13348786 -32.09765625 87.3125 C-42.82007428 83.69311839 -52.04789202 77.28989865 -57.5078125 67.21875 C-63.57804189 54.31517666 -64.65960783 36.75191091 -60.375 23.0625 C-55.70462421 11.947982 -48.06677629 2.93962991 -37.01953125 -2.2109375 C-24.31118967 -7.17628566 -12.05863826 -6.28641527 0 0 Z " fill="#262637" transform="translate(597,82)"/>
<path d="M0 0 C0.93263672 0.00612305 1.86527344 0.01224609 2.82617188 0.01855469 C11.64126143 0.21931882 19.33630257 1.89950265 25.6875 8.4375 C30.25114616 14.67790036 30.22016335 19.91910973 30.078125 27.49609375 C30.07246521 28.64038345 30.06680542 29.78467316 30.06097412 30.96363831 C30.03866956 34.60119301 29.98848168 38.2377454 29.9375 41.875 C29.91742746 44.34829302 29.89917802 46.82160155 29.8828125 49.29492188 C29.83882375 55.34283129 29.76983498 61.38999598 29.6875 67.4375 C24.0775 67.4375 18.4675 67.4375 12.6875 67.4375 C12.1925 63.9725 12.1925 63.9725 11.6875 60.4375 C10.92566406 61.16066406 10.92566406 61.16066406 10.1484375 61.8984375 C9.46007812 62.53007812 8.77171875 63.16171875 8.0625 63.8125 C7.38960937 64.43898438 6.71671875 65.06546875 6.0234375 65.7109375 C-0.27485335 70.36619595 -7.80848766 70.27421499 -15.3125 69.4375 C-20.72442705 67.86511579 -25.0328968 65.43032104 -28.4375 60.875 C-31.53448817 55.07638386 -31.11772566 48.62622195 -29.90625 42.32421875 C-28.14119401 37.08711184 -23.88043129 34.13977437 -19.3125 31.4375 C-15.89503575 29.91597668 -12.8243227 29.08150372 -9.1171875 28.62109375 C-8.15425781 28.49669922 -7.19132813 28.37230469 -6.19921875 28.24414062 C-5.20535156 28.12232422 -4.21148438 28.00050781 -3.1875 27.875 C-1.20540329 27.6262813 0.77638501 27.37508882 2.7578125 27.12109375 C3.63195801 27.01337646 4.50610352 26.90565918 5.40673828 26.79467773 C7.84318446 26.47762782 7.84318446 26.47762782 10.6875 25.4375 C11.12860359 20.73600771 11.12860359 20.73600771 9.375 16.5625 C5.61105183 14.05320122 2.0726697 14.21068088 -2.3125 14.4375 C-5.85644686 15.34409106 -6.97253376 15.89616287 -8.94140625 19.03125 C-11.3125 21.4375 -11.3125 21.4375 -15.203125 21.70703125 C-16.65879533 21.58131427 -18.11230302 21.42807189 -19.5625 21.25 C-20.30757812 21.17974609 -21.05265625 21.10949219 -21.8203125 21.03710938 C-23.65346497 20.86084471 -25.48346315 20.65230549 -27.3125 20.4375 C-28.44263378 17.04709867 -28.30281591 16.67173454 -26.8125 13.625 C-23.54798927 7.52227204 -18.77862799 3.66295036 -12.38452148 1.04174805 C-8.31863263 -0.14395655 -4.20547769 -0.04652741 0 0 Z " fill="#252436" transform="translate(658.3125,100.5625)"/>
<path d="M0 0 C7.76298331 6.52796324 11.2950591 12.49273639 13.75 22.3125 C13.75 26.6025 13.75 30.8925 13.75 35.3125 C-1.43 35.3125 -16.61 35.3125 -32.25 35.3125 C-30.17653106 44.53190614 -30.17653106 44.53190614 -24.25 49.3125 C-20.55723866 51.15888067 -16.28883185 50.65939353 -12.25 50.3125 C-7.82893409 48.76598778 -7.82893409 48.76598778 -5.09375 45.203125 C-4.8153125 44.57921875 -4.536875 43.9553125 -4.25 43.3125 C-2.1663691 43.45401828 -0.08310062 43.60087936 2 43.75 C3.16015625 43.83121094 4.3203125 43.91242188 5.515625 43.99609375 C8.05977376 44.24497787 10.30953248 44.59364942 12.75 45.3125 C12.61700092 50.63246322 10.53967095 53.63626146 7.05859375 57.4140625 C-1.45624293 64.41611093 -12.61652242 66.15311033 -23.28417969 65.54345703 C-30.78645644 64.662042 -38.13915535 60.78840499 -43.25 55.3125 C-50.47092474 45.38808895 -52.29107543 35.84347227 -50.97265625 23.7734375 C-49.40790596 14.1464976 -45.20090823 7.2551116 -37.69921875 1.04296875 C-26.09771322 -7.15394824 -12.3440279 -6.4093991 0 0 Z " fill="#272638" transform="translate(807.25,104.6875)"/>
<path d="M0 0 C1.29744141 -0.04350586 1.29744141 -0.04350586 2.62109375 -0.08789062 C11.13568983 -0.17086645 18.3890197 2.57477544 24.73828125 8.33203125 C32.72425192 17.99524636 33.375 26.94961493 33.375 39.3125 C17.865 39.3125 2.355 39.3125 -13.625 39.3125 C-10.75968479 49.48227718 -10.75968479 49.48227718 -7.0625 53 C-2.17128831 54.86755356 2.20586219 55.08825471 7.375 54.3125 C11.28575925 52.32281547 12.95189098 50.94716354 15.375 47.3125 C26.89664009 48.27605353 26.89664009 48.27605353 32.375 49.3125 C30.42615866 55.84685036 27.94441138 60.23378609 22.375 64.3125 C19.12835305 65.96079768 15.84891925 67.2301734 12.375 68.3125 C11.76269531 68.50457031 11.15039062 68.69664062 10.51953125 68.89453125 C1.40270481 70.67139906 -8.60637568 70.21429603 -16.625 65.3125 C-24.37089594 59.66240818 -29.49202224 53.60116659 -31.30859375 44.02734375 C-32.61949281 32.77950612 -32.55110967 21.75681719 -26.0625 12.125 C-18.88888165 3.25710997 -10.98445215 0.11956951 0 0 Z " fill="#272637" transform="translate(864.625,100.6875)"/>
<path d="M0 0 C5.91765661 2.73209817 9.81227471 7.05910967 12.3515625 13.06640625 C15.252231 22.90200634 14.99654017 35.62432557 10.94921875 45.0390625 C7.96515618 49.85819956 3.9269625 53.52043958 -1.4609375 55.31640625 C-16.43461875 56.46388685 -16.43461875 56.46388685 -22.4609375 51.31640625 C-28.94628626 43.24673713 -29.67825509 37.18112357 -29.7734375 27.06640625 C-29.80244141 26.05449219 -29.83144531 25.04257813 -29.86132812 24 C-29.92674712 16.2403007 -28.66944541 10.84576496 -23.390625 5.0390625 C-22.71257813 4.49121094 -22.03453125 3.94335938 -21.3359375 3.37890625 C-20.65273438 2.81300781 -19.96953125 2.24710937 -19.265625 1.6640625 C-14.0273277 -2.24765302 -6.09709042 -1.69363623 0 0 Z " fill="#FBF9FD" transform="translate(1021.4609375,96.68359375)"/>
<path d="M0 0 C5.94 0 11.88 0 18 0 C18.33 2.97 18.66 5.94 19 9 C19.556875 8.071875 20.11375 7.14375 20.6875 6.1875 C23.07046041 2.9028789 24.3888597 1.70413362 28 0 C31.33203125 -0.29296875 31.33203125 -0.29296875 34.8125 -0.1875 C36.55466797 -0.14689453 36.55466797 -0.14689453 38.33203125 -0.10546875 C39.21246094 -0.07066406 40.09289062 -0.03585938 41 0 C42.16306443 3.54950034 41.92365049 6.55823948 41.5625 10.25 C41.46066406 11.32765625 41.35882812 12.4053125 41.25390625 13.515625 C41.17011719 14.33546875 41.08632813 15.1553125 41 16 C39.97519531 16.02578125 38.95039062 16.0515625 37.89453125 16.078125 C36.53381301 16.13443058 35.17313757 16.19177737 33.8125 16.25 C33.13896484 16.26417969 32.46542969 16.27835938 31.77148438 16.29296875 C26.93357034 16.52896456 24.36861774 17.5266903 21 21 C19.27342863 23.88782322 18.74023797 26.05318168 18.68115234 29.40136719 C18.66128265 30.2619574 18.64141296 31.12254761 18.62094116 32.00921631 C18.60361435 33.38910736 18.60361435 33.38910736 18.5859375 34.796875 C18.56657135 35.74564514 18.5472052 36.69441528 18.5272522 37.67193604 C18.46754341 40.69786633 18.42110567 43.72383484 18.375 46.75 C18.33681223 48.80340187 18.29776003 50.85678786 18.2578125 52.91015625 C18.16184892 57.93997496 18.07778554 62.96986865 18 68 C12.06 68 6.12 68 0 68 C0 45.56 0 23.12 0 0 Z " fill="#2B2A3B" transform="translate(912,101)"/>
<path d="M0 0 C0.66 0.33 1.32 0.66 2 1 C2 6.61 2 12.22 2 18 C0.35 17.67 -1.3 17.34 -3 17 C-9.18924715 16.50878991 -12.00473474 16.95621384 -17 21 C-20.03283406 24.03283406 -20.11547726 27.05923328 -20.20532227 31.21777344 C-20.22526749 32.03832214 -20.24521271 32.85887085 -20.26576233 33.70428467 C-20.28247482 34.58046448 -20.29918732 35.45664429 -20.31640625 36.359375 C-20.33718735 37.26375305 -20.35796844 38.1681311 -20.37937927 39.09991455 C-20.4446594 41.98320055 -20.50365952 44.8665761 -20.5625 47.75 C-20.60570571 49.70704044 -20.64932065 51.66407188 -20.69335938 53.62109375 C-20.80108735 58.41397213 -20.90032091 63.20692042 -21 68 C-26.94 68 -32.88 68 -39 68 C-39 46.22 -39 24.44 -39 2 C-33.39 2 -27.78 2 -22 2 C-22 5.3 -22 8.6 -22 12 C-21.34 12 -20.68 12 -20 12 C-19.9175 11.443125 -19.835 10.88625 -19.75 10.3125 C-18.38432996 6.10168404 -15.93899608 3.63327643 -12.3125 1.1875 C-8.13099305 -0.31153079 -4.40197162 -0.45780505 0 0 Z " fill="#252436" transform="translate(745,100)"/>
<path d="M0 0 C0.66 0 1.32 0 2 0 C2.02686553 1.97909398 2.04633375 3.95828971 2.0625 5.9375 C2.07410156 7.03964844 2.08570313 8.14179688 2.09765625 9.27734375 C2 12 2 12 1 13 C-0.43440084 13.09705719 -1.8735729 13.12447376 -3.31125361 13.1241985 C-4.24952233 13.12644579 -5.18779106 13.12869308 -6.15449217 13.13100848 C-7.72200801 13.12706796 -7.72200801 13.12706796 -9.32119083 13.12304783 C-10.42485269 13.12420167 -11.52851456 13.12535552 -12.66562071 13.12654433 C-16.41398171 13.12921967 -20.16230091 13.12468133 -23.91065979 13.12025452 C-26.60501861 13.12069003 -29.29937462 13.12152219 -31.99373287 13.12284368 C-37.87760883 13.12492329 -43.76147471 13.12326369 -49.6453495 13.11920547 C-58.39455126 13.11318768 -67.14374661 13.11286806 -75.89295006 13.11374746 C-90.60819119 13.11506357 -105.32342785 13.1117116 -120.03866768 13.10573006 C-134.61568791 13.09981984 -149.19270628 13.09596549 -163.76972771 13.09487724 C-164.67494341 13.0948085 -165.58015912 13.09473976 -166.51280561 13.09466894 C-171.10964598 13.09433062 -175.70648635 13.09402923 -180.30332672 13.09374207 C-212.89126531 13.09163977 -245.47920146 13.08489717 -278.06713867 13.07543945 C-309.73250312 13.06626007 -341.39786691 13.05917398 -373.06323242 13.05493164 C-374.03871941 13.05480011 -375.01420639 13.05466859 -376.01925359 13.05453308 C-385.81519411 13.05321459 -395.61113464 13.05193878 -405.40707518 13.05069422 C-425.36382632 13.04815777 -445.32057741 13.04533652 -465.27732849 13.04234314 C-466.19497547 13.04220585 -467.11262244 13.04206856 -468.05807691 13.04192711 C-529.37205229 13.03272122 -590.68602631 13.01687541 -652 13 C-652 12.34 -652 11.68 -652 11 C-436.84 11 -221.68 11 0 11 C0 7.37 0 3.74 0 0 Z " fill="#F2FEC4" transform="translate(1164,196)"/>
<path d="M0 0 C7.9799077 -0.00125951 15.95981147 -0.00497296 23.93971777 -0.00973773 C75.58278808 -0.03856847 127.20702556 0.22253635 178.84285498 1.12283063 C178.84285498 1.78283063 178.84285498 2.44283063 178.84285498 3.12283063 C-36.64714502 3.12283063 -252.13714502 3.12283063 -474.15714502 3.12283063 C-474.15714502 2.46283063 -474.15714502 1.80283063 -474.15714502 1.12283063 C-379.192238 0.81985745 -284.22727967 0.52983895 0 0 Z " fill="#F7FED5" transform="translate(985.157145023346,192.87716937065125)"/>
<path d="M0 0 C4.881441 2.26638332 7.70028068 5.13520912 10 10 C10.78954684 15.40597889 10.72016927 19.6093283 8.1875 24.5 C7.1046875 25.7375 7.1046875 25.7375 6 27 C5.54625 27.5775 5.0925 28.155 4.625 28.75 C0.93358723 31.58954828 -2.88880649 32.21697346 -7.4375 32 C-12.45753443 31.28769782 -15.85566628 28.9369497 -19 25 C-21.58119989 19.7771708 -21.67995118 14.71662659 -21 9 C-16.56524714 -0.19800593 -9.39293372 -1.13428915 0 0 Z " fill="#C1F935" transform="translate(462,78)"/>
<path d="M0 0 C0.90711462 9.28952569 0.90711462 9.28952569 -1.1953125 13.25390625 C-4.65087584 17.4127375 -7.06817641 18.71339545 -12.4375 19.23828125 C-19.26735667 19.43609722 -19.26735667 19.43609722 -22.625 17.4375 C-24.54211763 14.03897329 -24.54861638 11.84031465 -24 8 C-20.83856899 3.66766861 -16.8762955 2.3640238 -11.73828125 1.3671875 C-10.04251953 1.12355469 -10.04251953 1.12355469 -8.3125 0.875 C-7.17425781 0.70742187 -6.03601563 0.53984375 -4.86328125 0.3671875 C-2 0 -2 0 0 0 Z " fill="#F7F7F8" transform="translate(670,138)"/>
<path d="M0 0 C2.92099571 0.7342105 4.66168947 2.21710098 6.34765625 4.69921875 C7.81976334 8.03976945 7.94299996 10.99548781 7.16015625 14.54296875 C4.16015625 20.04296875 4.16015625 20.04296875 1.16015625 21.54296875 C-5.8270329 22.34477734 -5.8270329 22.34477734 -9.83984375 19.16796875 C-12.32402971 15.61068205 -12.56276375 12.14510876 -12.3125 7.890625 C-11.83984375 5.54296875 -11.83984375 5.54296875 -9.90234375 2.41796875 C-6.35541791 0.2463815 -4.10922011 -0.25382495 0 0 Z " fill="#272734" transform="translate(634.83984375,236.45703125)"/>
<path d="M0 0 C3.73716178 0.87853713 5.13010387 2.29902003 7.16015625 5.5078125 C7.97601992 9.88812912 7.6641563 13.37981239 5.84765625 17.4453125 C3.36423446 20.4806058 1.68482256 21.4398002 -2.21484375 21.9453125 C-6.74414612 21.39867256 -8.01992095 19.99124655 -10.83984375 16.5078125 C-12.46227281 13.26295438 -12.39181494 10.014453 -11.83984375 6.5078125 C-9.48503674 1.04006549 -5.6479416 -0.43373174 0 0 Z " fill="#3E3E4D" transform="translate(1071.83984375,236.4921875)"/>
<path d="M0 0 C10.18215613 -0.49070632 10.18215613 -0.49070632 14.125 1.875 C17.26722399 5.43618719 17.38559996 8.11830903 17.36328125 12.73828125 C16.7918883 16.29566317 14.7487971 17.85459738 12 20 C11.67 20.33 11.34 20.66 11 21 C7.3308423 21.14310287 3.67284559 21.04221662 0 21 C0 14.07 0 7.14 0 0 Z " fill="#2B2C3A" transform="translate(783,237)"/>
<path d="M0 0 C3.97580986 4.09628895 4.0625 5.0103955 4.0625 11.125 C-5.1775 11.125 -14.4175 11.125 -23.9375 11.125 C-22.91003616 4.96021694 -22.2402397 3.33212326 -17.9375 -0.875 C-12.07571687 -3.93911391 -5.51769937 -3.52193577 0 0 Z " fill="#F4F4F7" transform="translate(798.9375,116.875)"/>
<path d="M0 0 C3.82550114 2.02101947 6.95064326 4.12899283 9 8 C9 9.98 9 11.96 9 14 C0.09 14 -8.82 14 -18 14 C-18 8 -18 8 -16.375 5.3125 C-11.58848619 0.65194708 -6.57168206 -1.19365882 0 0 Z " fill="#F6F6F8" transform="translate(870,114)"/>
<path d="M0 0 C1.32 0 2.64 0 4 0 C5.33583899 4.84241633 6.25328119 8.93437617 6 14 C6.66 14 7.32 14 8 14 C8.12375 12.80375 8.2475 11.6075 8.375 10.375 C8.82325054 6.72403187 9.70446837 3.45475101 11 0 C12.32 0 13.64 0 15 0 C15.48108275 1.41601714 15.95978141 2.83284437 16.4375 4.25 C16.70433594 5.03890625 16.97117187 5.8278125 17.24609375 6.640625 C17.9153949 8.7352255 18.46667992 10.86671967 19 13 C19.99 8.71 20.98 4.42 22 0 C23.32 0 24.64 0 26 0 C24.57142857 17.42857143 24.57142857 17.42857143 21 21 C19.35 21 17.7 21 16 21 C15.01 16.38 14.02 11.76 13 7 C12.525625 9.124375 12.05125 11.24875 11.5625 13.4375 C10.125 19.875 10.125 19.875 9 21 C7.33382885 21.04063832 5.66611905 21.042721 4 21 C3.32595716 18.43923903 2.660586 15.87673417 2 13.3125 C1.71382812 12.2306543 1.71382812 12.2306543 1.421875 11.12695312 C0.45134572 7.33149039 -0.24955239 3.95384561 0 0 Z " fill="#3C3B47" transform="translate(656,237)"/>
<path d="M0 0 C1.918125 -0.0825 3.83625 -0.165 5.8125 -0.25 C7.43091797 -0.31960937 7.43091797 -0.31960937 9.08203125 -0.390625 C12 0 12 0 13.86328125 1.859375 C15.27823255 4.52395682 15.44700309 6.01997938 15 9 C13.5 11.3125 13.5 11.3125 12 13 C12.66 13.94875 13.32 14.8975 14 15.875 C16 19 16 19 16 21 C14.35 21 12.7 21 11 21 C8 15.25 8 15.25 8 13 C7.01 13 6.02 13 5 13 C5 15.31 5 17.62 5 20 C3.35 20.33 1.7 20.66 0 21 C0 14.07 0 7.14 0 0 Z " fill="#3F3F4D" transform="translate(981,237)"/>
<path d="M0 0 C10.47654404 -0.36976038 10.47654404 -0.36976038 12.8359375 1.296875 C14.76743858 4.1228296 14.29057638 6.68742927 14 10 C13.608125 10.70125 13.21625 11.4025 12.8125 12.125 C12.544375 12.74375 12.27625 13.3625 12 14 C13.31865712 16.64225405 13.31865712 16.64225405 15 19 C15 19.66 15 20.32 15 21 C12.6875 20.875 12.6875 20.875 10 20 C8.9349985 18.03384339 7.93166826 16.03273074 7 14 C6.01 13.67 5.02 13.34 4 13 C4 15.64 4 18.28 4 21 C2.68 21 1.36 21 0 21 C0 14.07 0 7.14 0 0 Z " fill="#302F3D" transform="translate(725,237)"/>
<path d="M0 0 C1.98 0 3.96 0 6 0 C6.7945261 2.18646304 7.5854858 4.37422221 8.375 6.5625 C8.81585937 7.78066406 9.25671875 8.99882812 9.7109375 10.25390625 C10.9372554 13.81766039 11.99981127 17.36847363 13 21 C11.35 21 9.7 21 8 21 C7.67 19.35 7.34 17.7 7 16 C3.56206661 16.18129815 3.56206661 16.18129815 0 17 C-1.51294288 18.93597032 -1.51294288 18.93597032 -2 21 C-3.32 21 -4.64 21 -6 21 C-4.11380178 13.96354423 -2.13072305 6.96640656 0 0 Z " fill="#252632" transform="translate(869,237)"/>
<path d="M0 0 C1.65 0 3.3 0 5 0 C7.93841629 6.87619244 10.180206 13.74839665 12 21 C10.35 20.67 8.7 20.34 7 20 C6.67 19.01 6.34 18.02 6 17 C3.69 17 1.38 17 -1 17 C-1.66 18.32 -2.32 19.64 -3 21 C-4.32 21 -5.64 21 -7 21 C-5.180206 13.74839665 -2.93841629 6.87619244 0 0 Z " fill="#2C2A3A" transform="translate(529,237)"/>
<path d="M0 0 C10.14938489 -0.48330404 10.14938489 -0.48330404 13.75 1.5625 C15.54963144 5.07178131 15.03774589 7.26411481 14 11 C10.3558226 13.4294516 8.28758728 13.16179575 4 13 C4 15.64 4 18.28 4 21 C2.68 21 1.36 21 0 21 C0 14.07 0 7.14 0 0 Z " fill="#343542" transform="translate(594,237)"/>
<path d="M0 0 C1.32 0 2.64 0 4 0 C4 2.64 4 5.28 4 8 C6.31 8 8.62 8 11 8 C11 5.36 11 2.72 11 0 C12.65 0 14.3 0 16 0 C16 6.93 16 13.86 16 21 C14.68 21 13.36 21 12 21 C12 18.03 12 15.06 12 12 C9.36 12 6.72 12 4 12 C4 14.97 4 17.94 4 21 C2.68 21 1.36 21 0 21 C0 14.07 0 7.14 0 0 Z " fill="#383745" transform="translate(1155,237)"/>
<path d="M0 0 C1.65 0 3.3 0 5 0 C6.61567713 4.23153534 8.19776257 8.47232538 9.6875 12.75 C9.93886719 13.46671875 10.19023438 14.1834375 10.44921875 14.921875 C11 17 11 17 11 21 C9.68 21 8.36 21 7 21 C6.67 19.35 6.34 17.7 6 16 C3.36 16 0.72 16 -2 16 C-2.33 17.65 -2.66 19.3 -3 21 C-4.32 21 -5.64 21 -7 21 C-5.180206 13.74839665 -2.93841629 6.87619244 0 0 Z " fill="#272735" transform="translate(1099,237)"/>
<path d="M0 0 C4.62 0 9.24 0 14 0 C14 1.32 14 2.64 14 4 C11.03 4 8.06 4 5 4 C5 5.32 5 6.64 5 8 C7.31 8 9.62 8 12 8 C12 9.32 12 10.64 12 12 C9.69 12 7.38 12 5 12 C5 13.65 5 15.3 5 17 C7.64 17 10.28 17 13 17 C13 18.32 13 19.64 13 21 C8.71 21 4.42 21 0 21 C0 14.07 0 7.14 0 0 Z " fill="#42404D" transform="translate(953,237)"/>
<path d="M0 0 C4.29 0 8.58 0 13 0 C13 1.32 13 2.64 13 4 C10.03 4 7.06 4 4 4 C4 5.32 4 6.64 4 8 C6.64 8 9.28 8 12 8 C12 9.32 12 10.64 12 12 C9.36 12 6.72 12 4 12 C4 13.65 4 15.3 4 17 C7.3 17 10.6 17 14 17 C14 18.32 14 19.64 14 21 C9.38 21 4.76 21 0 21 C0 14.07 0 7.14 0 0 Z " fill="#4D4B5A" transform="translate(925,237)"/>
<path d="M0 0 C4.29 0 8.58 0 13 0 C13 0.99 13 1.98 13 3 C10.03 3 7.06 3 4 3 C4 4.65 4 6.3 4 8 C6.64 8 9.28 8 12 8 C12 9.32 12 10.64 12 12 C9.36 12 6.72 12 4 12 C4 13.65 4 15.3 4 17 C6.97 17 9.94 17 13 17 C13 18.32 13 19.64 13 21 C8.71 21 4.42 21 0 21 C0 14.07 0 7.14 0 0 Z " fill="#282735" transform="translate(755,237)"/>
<path d="M0 0 C3.96 0 7.92 0 12 0 C12 0.99 12 1.98 12 3 C9.03 3 6.06 3 3 3 C3 4.65 3 6.3 3 8 C5.64 8 8.28 8 11 8 C11 9.32 11 10.64 11 12 C8.69 12 6.38 12 4 12 C4 13.65 4 15.3 4 17 C6.97 17 9.94 17 13 17 C13 18.32 13 19.64 13 21 C8.71 21 4.42 21 0 21 C0 14.07 0 7.14 0 0 Z " fill="#2F2E3D" transform="translate(697,237)"/>
<path d="M0 0 C8.30078125 -0.390625 8.30078125 -0.390625 11 0 C13.17560848 2.20808025 13.91438201 3.42921342 14.375 6.5 C13.93519057 9.43206287 12.94837851 10.80807418 11 13 C11.66 13.94875 12.32 14.8975 13 15.875 C15 19 15 19 15 21 C13.35 21 11.7 21 10 21 C7 15.25 7 15.25 7 13 C5.68 13 4.36 13 3 13 C3 15.31 3 17.62 3 20 C2.67 20 2.34 20 2 20 C2 14.39 2 8.78 2 3 C2.33 3 2.66 3 3 3 C3 5.31 3 7.62 3 10 C4.98 9.34 6.96 8.68 9 8 C9 6.68 9 5.36 9 4 C7.35 3.67 5.7 3.34 4 3 C4 2.34 4 1.68 4 1 C3.01 1 2.02 1 1 1 C1 7.27 1 13.54 1 20 C0.67 20 0.34 20 0 20 C0 13.4 0 6.8 0 0 Z " fill="#252431" transform="translate(896,237)"/>
<path d="M0 0 C0.99 0.66 1.98 1.32 3 2 C2.67 2.99 2.34 3.98 2 5 C-0.01822917 4.67447917 -2.03645833 4.34895833 -4.0546875 4.0234375 C-4.69664062 4.01570312 -5.33859375 4.00796875 -6 4 C-8.16512323 5.75475062 -8.16512323 5.75475062 -8.23046875 7.875 C-8.21628906 8.57625 -8.20210937 9.2775 -8.1875 10 C-8.18105469 10.70125 -8.17460938 11.4025 -8.16796875 12.125 C-8.10706133 14.09056373 -8.10706133 14.09056373 -7 16 C-4.03 16 -1.06 16 2 16 C2.33 16.99 2.66 17.98 3 19 C-0.66788808 21.34744837 -3.71902154 21.60083908 -8 21 C-11.33458323 18.30395398 -12.65941667 16.73614431 -13.48046875 12.55078125 C-13.72586209 8.1138044 -13.42758517 5.66810182 -11 1.875 C-6.89466366 -0.69083521 -4.78837042 -0.54062247 0 0 Z " fill="#363440" transform="translate(847,237)"/>
<path d="M0 0 C0.66 0 1.32 0 2 0 C1.98952637 0.94617188 1.97905273 1.89234375 1.96826172 2.8671875 C1.93138673 6.46057171 1.90886077 10.05394022 1.89013672 13.64746094 C1.8802297 15.18720331 1.86670031 16.72692767 1.84912109 18.26660156 C1.72968948 29.01544673 2.39404847 39.36849222 4 50 C4.66 50 5.32 50 6 50 C6.03996094 50.57363281 6.07992187 51.14726562 6.12109375 51.73828125 C7.11529607 59.8269149 10.34107481 66.44056654 13.98803711 73.62426758 C14.38772705 74.41986084 14.78741699 75.2154541 15.19921875 76.03515625 C15.56877686 76.7506665 15.93833496 77.46617676 16.3190918 78.20336914 C16.5437915 78.79625732 16.76849121 79.38914551 17 80 C16.67 80.66 16.34 81.32 16 82 C5.06687717 62.53951776 -1.63038484 43.34360961 -1.28125 20.84350586 C-1.24942375 18.77504809 -1.24019203 16.70735306 -1.234375 14.63867188 C-1.14907926 3.73681037 -1.14907926 3.73681037 0 0 Z " fill="#4D2797" transform="translate(214,145)"/>
<path d="M0 0 C0.66 0.99 1.32 1.98 2 3 C-1.73130114 5.48753409 -2.76618877 4.72064872 -7 4 C-9.16512323 5.75475062 -9.16512323 5.75475062 -9.23046875 7.875 C-9.21628906 8.57625 -9.20210937 9.2775 -9.1875 10 C-9.18105469 10.70125 -9.17460938 11.4025 -9.16796875 12.125 C-9.10706133 14.09056373 -9.10706133 14.09056373 -8 16 C-5.03 16 -2.06 16 1 16 C1 17.32 1 18.64 1 20 C-2.10048928 21.55024464 -4.57894218 21.28992015 -8 21 C-10.75329021 19.20437595 -12.52627461 17.94745078 -14 15 C-14.61885492 10.00495675 -14.75635505 6.2199275 -12.0625 1.875 C-8.12063699 -0.53838552 -4.53582695 -1.06935017 0 0 Z " fill="#282735" transform="translate(1138,237)"/>
<path d="M0 0 C0.66 0.99 1.32 1.98 2 3 C1.67 3.66 1.34 4.32 1 5 C-1.01822917 4.67447917 -3.03645833 4.34895833 -5.0546875 4.0234375 C-5.69664063 4.01570312 -6.33859375 4.00796875 -7 4 C-9.16512323 5.75475062 -9.16512323 5.75475062 -9.23046875 7.875 C-9.21628906 8.57625 -9.20210937 9.2775 -9.1875 10 C-9.18105469 10.70125 -9.17460938 11.4025 -9.16796875 12.125 C-9.10706133 14.09056373 -9.10706133 14.09056373 -8 16 C-5.03 16 -2.06 16 1 16 C1 17.32 1 18.64 1 20 C-2.10048928 21.55024464 -4.57894218 21.28992015 -8 21 C-10.75329021 19.20437595 -12.52627461 17.94745078 -14 15 C-14.61885492 10.00495675 -14.75635505 6.2199275 -12.0625 1.875 C-8.12063699 -0.53838552 -4.53582695 -1.06935017 0 0 Z " fill="#292735" transform="translate(1044,237)"/>
<path d="M0 0 C1.32 0 2.64 0 4 0 C5.33583899 4.84241633 6.25328119 8.93437617 6 14 C6.66 14 7.32 14 8 14 C8.144375 12.72125 8.28875 11.4425 8.4375 10.125 C8.70642746 7.74307106 8.92226346 6.15547309 10 4 C12.0625 3.375 12.0625 3.375 14 3 C14 3.66 14 4.32 14 5 C13.34 5 12.68 5 12 5 C12.061875 5.969375 12.12375 6.93875 12.1875 7.9375 C12.21625881 12.61559946 10.64771207 16.67475582 9 21 C7.35 21 5.7 21 4 21 C3.32595716 18.43923903 2.660586 15.87673417 2 13.3125 C1.71382812 12.2306543 1.71382812 12.2306543 1.421875 11.12695312 C0.45134572 7.33149039 -0.24955239 3.95384561 0 0 Z " fill="#31303E" transform="translate(656,237)"/>
<path d="M0 0 C2.5 0.5 2.5 0.5 4.375 1.9375 C6.07561771 5.81112923 5.39139454 9.43094902 4.5 13.5 C3.5 14.5 3.5 14.5 0.625 14.8125 C-2.5 14.5 -2.5 14.5 -4.375 12.875 C-5.82142958 9.82142645 -5.91827541 7.84620325 -5.5 4.5 C-4.00114205 1.5022841 -3.31098525 0.66219705 0 0 Z " fill="#F4F4F7" transform="translate(1069.5,239.5)"/>
<path d="M0 0 C5.875 0.875 5.875 0.875 7 2 C7.1245486 3.64230364 7.17568524 5.29052276 7.1875 6.9375 C7.20167969 7.83339844 7.21585938 8.72929687 7.23046875 9.65234375 C7 12 7 12 5 14 C2 14.3125 2 14.3125 -1 14 C-3.47342266 10.28986601 -3.38503486 8.38939738 -3 4 C-1.5 1.5625 -1.5 1.5625 0 0 Z " fill="#EFEFF3" transform="translate(630,240)"/>
<path d="M0 0 C0 1.92581691 -0.01078077 3.85168111 -0.03515625 5.77734375 C-0.04417969 6.82019531 -0.05320312 7.86304687 -0.0625 8.9375 C-0.07410156 9.97777344 -0.08570313 11.01804687 -0.09765625 12.08984375 C-0.01365699 14.59302176 0.27150295 16.61947816 1 19 C1.66 19 2.32 19 3 19 C3 19.66 3 20.32 3 21 C6.12813537 22.83198669 8.39085291 23.24801923 12 23.1875 C12.845625 23.18105469 13.69125 23.17460938 14.5625 23.16796875 C16.83252477 23.01154076 18.81961604 22.63089814 21 22 C21 21.34 21 20.68 21 20 C22.65 19.34 24.3 18.68 26 18 C24.14863969 22.12995761 22.50387894 24.28386717 18.375 26.25 C13.24157787 27.39076047 8.56964747 27.53789507 3.9375 24.765625 C-0.45844584 21.21223545 -2.67252469 17.99831289 -3.30078125 12.24609375 C-3.30464844 11.31925781 -3.30851562 10.39242187 -3.3125 9.4375 C-3.32925781 8.50808594 -3.34601563 7.57867187 -3.36328125 6.62109375 C-2.94541502 3.60616644 -2.00188259 2.24485514 0 0 Z " fill="#C7F159" transform="translate(444,83)"/>
<path d="M0 0 C9 0 9 0 11.125 1.75 C12.13281038 4.34151241 12.00298644 5.44694361 11 8 C10.34 6.68 9.68 5.36 9 4 C7.68 4 6.36 4 5 4 C5 4.763125 5 5.52625 5 6.3125 C5 9.82437092 4.90441744 13.19939959 4.5 16.6875 C4.4071875 17.49574219 4.314375 18.30398437 4.21875 19.13671875 C4.11046875 20.05904297 4.11046875 20.05904297 4 21 C2.68 21 1.36 21 0 21 C0 14.07 0 7.14 0 0 Z " fill="#353441" transform="translate(981,237)"/>
<path d="M0 0 C0.66 0 1.32 0 2 0 C2.33 0.66 2.66 1.32 3 2 C3.804375 1.979375 4.60875 1.95875 5.4375 1.9375 C8 2 8 2 9 3 C9.04063832 4.66617115 9.042721 6.33388095 9 8 C6.69 8.33 4.38 8.66 2 9 C2.33 9.99 2.66 10.98 3 12 C3.12781786 14.67394964 3.04391871 17.32095857 3 20 C1.68 20 0.36 20 -1 20 C-1.11044961 13.26257354 -0.70132913 6.70019789 0 0 Z " fill="#343445" transform="translate(726,238)"/>
<path d="M0 0 C2.475 0.495 2.475 0.495 5 1 C5 1.66 5 2.32 5 3 C6.65 3 8.3 3 10 3 C10.625 5.375 10.625 5.375 11 8 C9 10 9 10 6.375 10.125 C5.59125 10.08375 4.8075 10.0425 4 10 C4.33 10.99 4.66 11.98 5 13 C5.12781786 15.67394964 5.04391871 18.32095857 5 21 C3.35 21 1.7 21 0 21 C0 14.07 0 7.14 0 0 Z " fill="#71707C" transform="translate(895,237)"/>
<path d="M0 0 C1.8125 1.3125 1.8125 1.3125 3.8125 3.3125 C3.4375 6.9375 3.4375 6.9375 2.8125 10.3125 C-0.54888279 11.1528457 -2.89137801 11.48968642 -6.1875 10.3125 C-7.1875 9.3125 -7.1875 9.3125 -7.5625 5.9375 C-7.1875 2.3125 -7.1875 2.3125 -4.9375 0.25 C-2.1875 -0.6875 -2.1875 -0.6875 0 0 Z " fill="#3D3D4A" transform="translate(605.1875,237.6875)"/>
<path d="M0 0 C2.97 0.495 2.97 0.495 6 1 C8.32579101 4.48868651 8.41865457 5.89718519 8 10 C6.8125 12.375 6.8125 12.375 5 14 C3.35 14 1.7 14 0 14 C0 9.38 0 4.76 0 0 Z " fill="#F0F0F5" transform="translate(788,240)"/>
<path d="M0 0 C1.32 0 2.64 0 4 0 C4 6.93 4 13.86 4 21 C2.68 21 1.36 21 0 21 C-0.33 18.03 -0.66 15.06 -1 12 C-3.31 11.67 -5.62 11.34 -8 11 C-8 10.67 -8 10.34 -8 10 C-5.36 9.67 -2.72 9.34 0 9 C0 6.03 0 3.06 0 0 Z " fill="#3B3A48" transform="translate(1167,237)"/>
<path d="M0 0 C1.98 0 3.96 0 6 0 C6.70133599 1.57725347 7.385583 3.16211333 8.0625 4.75 C8.44535156 5.63171875 8.82820312 6.5134375 9.22265625 7.421875 C10.04600008 10.15256309 9.9773992 11.36901347 9 14 C8.34 13.34 7.68 12.68 7 12 C6.67 12.33 6.34 12.66 6 13 C4.33382885 13.04063832 2.66611905 13.042721 1 13 C1.33 10.69 1.66 8.38 2 6 C1.01 6 0.02 6 -1 6 C-0.67 4.02 -0.34 2.04 0 0 Z " fill="#33323F" transform="translate(869,237)"/>
<path d="M0 0 C3.38231081 1.39957689 5.27928642 2.73064421 7 6 C7.56041277 10.96365593 7.5325029 13.02374469 5.125 17.4375 C3 20 3 20 1 21 C-1.6723621 21.13415472 -4.32250488 21.04318541 -7 21 C-4.79072873 17.51167694 -2.91402949 16.26941497 1 15 C1.165 13.741875 1.33 12.48375 1.5 11.1875 C1.5928125 10.47980469 1.685625 9.77210938 1.78125 9.04296875 C2.18080195 5.31143898 1.79427711 3.25212726 0 0 Z " fill="#3E3E4B" transform="translate(635,237)"/>
<path d="M0 0 C2.23046875 0.40234375 2.23046875 0.40234375 5.29296875 2.33984375 C7.82405554 6.34059383 8.09616284 9.76404595 7.23046875 14.40234375 C6.57046875 15.06234375 5.91046875 15.72234375 5.23046875 16.40234375 C5.23046875 13.76234375 5.23046875 11.12234375 5.23046875 8.40234375 C4.90046875 10.38234375 4.57046875 12.36234375 4.23046875 14.40234375 C3.90046875 14.40234375 3.57046875 14.40234375 3.23046875 14.40234375 C3.09769531 13.76425781 2.96492188 13.12617188 2.828125 12.46875 C2.56322266 11.22931641 2.56322266 11.22931641 2.29296875 9.96484375 C2.11894531 9.14113281 1.94492188 8.31742188 1.765625 7.46875 C1.42293881 5.42573171 1.42293881 5.42573171 0.23046875 4.40234375 C-2.22745154 4.06890824 -2.22745154 4.06890824 -4.76953125 4.40234375 C-6.71463125 7.31999375 -7.22229442 9.0277166 -7.76953125 12.40234375 C-8.09953125 12.40234375 -8.42953125 12.40234375 -8.76953125 12.40234375 C-8.89453125 6.65234375 -8.89453125 6.65234375 -7.76953125 4.40234375 C-8.42953125 4.07234375 -9.08953125 3.74234375 -9.76953125 3.40234375 C-6.79610327 -0.15819422 -4.45789293 -0.1818064 0 0 Z " fill="#1E1D2B" transform="translate(1071.76953125,236.59765625)"/>
<path d="M0 0 C1.32 0 2.64 0 4 0 C4 6.93 4 13.86 4 21 C2.68 21 1.36 21 0 21 C0 14.07 0 7.14 0 0 Z " fill="#242231" transform="translate(555,237)"/>
<path d="M0 0 C0.66 0.33 1.32 0.66 2 1 C-8.19594362 8.47702532 -19.58269618 14.18376705 -31.625 18 C-32.2754126 18.20761963 -32.9258252 18.41523926 -33.59594727 18.62915039 C-37.49154478 19.78574282 -40.94576631 20.19959304 -45 20 C-41.9407974 17.9605316 -39.97909003 17.4099678 -36.4375 16.625 C-30.77465068 15.26784511 -25.19269501 13.6888798 -20 11 C-19.67 10.34 -19.34 9.68 -19 9 C-17.69289063 8.81824219 -17.69289063 8.81824219 -16.359375 8.6328125 C-12.3605407 7.87954371 -9.56299745 6.10651322 -6.25 3.875 C-4.19236244 2.49863841 -2.15339195 1.23135949 0 0 Z " fill="#4D2C93" transform="translate(396,261)"/>
<path d="M0 0 C1.2065625 0.0309375 1.2065625 0.0309375 2.4375 0.0625 C3.11506882 1.62030332 3.77909457 3.18400096 4.4375 4.75 C4.80875 5.62011719 5.18 6.49023438 5.5625 7.38671875 C6.45620488 10.1197002 6.60199676 12.20950934 6.4375 15.0625 C4.5625 14.4375 4.5625 14.4375 2.4375 13.0625 C1.1875 9.9375 1.1875 9.9375 0.4375 7.0625 C-1.2125 7.7225 -2.8625 8.3825 -4.5625 9.0625 C-3.56521739 0.08695652 -3.56521739 0.08695652 0 0 Z " fill="#272533" transform="translate(531.5625,236.9375)"/>
<path d="M0 0 C0.29211698 8.86088167 -0.55203128 17.26047454 -2 26 C-2.33 26 -2.66 26 -3 26 C-5.97045941 9.18376286 -5.97045941 9.18376286 -4 1 C-2 0 -2 0 0 0 Z " fill="#6A43B0" transform="translate(446,165)"/>
<path d="M0 0 C0.99 0 1.98 0 3 0 C3.66 2.64 4.32 5.28 5 8 C7.97 8 10.94 8 14 8 C14 9.32 14 10.64 14 12 C10.89951072 13.55024464 8.42105782 13.28992015 5 13 C1.61060444 10.86320715 0.27417443 9.8225233 -1 6 C-0.72428861 3.99124558 -0.39764263 1.98821313 0 0 Z " fill="#373644" transform="translate(1125,245)"/>
<path d="M0 0 C1.45792884 -0.05399736 2.91642712 -0.09279177 4.375 -0.125 C5.18710937 -0.14820313 5.99921875 -0.17140625 6.8359375 -0.1953125 C9 0 9 0 11 2 C12.69584422 4.58839381 13.05058439 5.62904782 12.625 8.75 C12.41875 9.4925 12.2125 10.235 12 11 C11.5978125 10.1028125 11.5978125 10.1028125 11.1875 9.1875 C9.9790109 6.96133587 8.96469639 5.58687016 7 4 C5.68 3.67 4.36 3.34 3 3 C3 7.62 3 12.24 3 17 C0 14 0 14 -0.29296875 10.64453125 C-0.25816406 9.37996094 -0.22335937 8.11539063 -0.1875 6.8125 C-0.16042969 5.54019531 -0.13335938 4.26789063 -0.10546875 2.95703125 C-0.07066406 1.98121094 -0.03585937 1.00539062 0 0 Z " fill="#41424F" transform="translate(785,237)"/>
<path d="M0 0 C0.33 0 0.66 0 1 0 C1.125 7.625 1.125 7.625 0 11 C-0.66 11 -1.32 11 -2 11 C-2.33 18.92 -2.66 26.84 -3 35 C-5.45628537 32.54371463 -5.28144798 31.10414268 -5.32861328 27.7434082 C-5.3232959 27.0443335 -5.31797852 26.34525879 -5.3125 25.625 C-5.30976074 24.90981201 -5.30702148 24.19462402 -5.30419922 23.45776367 C-5.14304625 15.15653329 -3.16979247 7.64884705 0 0 Z " fill="#5C38A3" transform="translate(977,100)"/>
<path d="M0 0 C1.17755859 -0.01160156 1.17755859 -0.01160156 2.37890625 -0.0234375 C3.05824219 0.10804688 3.73757813 0.23953125 4.4375 0.375 C5.0975 1.365 5.7575 2.355 6.4375 3.375 C6.1075 4.035 5.7775 4.695 5.4375 5.375 C3.41927083 5.04947917 1.40104167 4.72395833 -0.6171875 4.3984375 C-1.25914063 4.39070312 -1.90109375 4.38296875 -2.5625 4.375 C-4.80574836 6.18693006 -4.80574836 6.18693006 -4.7578125 8.7578125 C-4.73460937 9.66273438 -4.71140625 10.56765625 -4.6875 11.5 C-4.66945313 12.41007813 -4.65140625 13.32015625 -4.6328125 14.2578125 C-4.60960937 14.95648438 -4.58640625 15.65515625 -4.5625 16.375 C-6.05078125 15.09375 -6.05078125 15.09375 -7.5625 13.375 C-7.75 9.875 -7.75 9.875 -7.5625 6.375 C-7.5625 5.385 -7.5625 4.395 -7.5625 3.375 C-5.36814755 0.36923105 -3.64039537 -0.03598414 0 0 Z " fill="#282633" transform="translate(1039.5625,236.625)"/>
<path d="M0 0 C4.29 0 8.58 0 13 0 C12.67 4.29 12.34 8.58 12 13 C11.67 11.68 11.34 10.36 11 9 C8.36 9 5.72 9 3 9 C3 7.35 3 5.7 3 4 C5.97 4 8.94 4 12 4 C12 3.01 12 2.02 12 1 C8.04 1 4.08 1 0 1 C0 0.67 0 0.34 0 0 Z " fill="#C6C5CF" transform="translate(697,236)"/>
<path d="M0 0 C3.96 0 7.92 0 12 0 C12 0.99 12 1.98 12 3 C10.54176788 3.0270043 9.08339325 3.04639787 7.625 3.0625 C6.81289063 3.07410156 6.00078125 3.08570313 5.1640625 3.09765625 C3 3 3 3 1 2 C1 7.61 1 13.22 1 19 C4.63 18.67 8.26 18.34 12 18 C12 18.66 12 19.32 12 20 C8.04 20 4.08 20 0 20 C0 13.4 0 6.8 0 0 Z " fill="#1B1928" transform="translate(697,237)"/>
<path d="M0 0 C2.97 0 5.94 0 9 0 C9 0.99 9 1.98 9 3 C6.69 3 4.38 3 2 3 C2 4.65 2 6.3 2 8 C4.31 8 6.62 8 9 8 C9 8.66 9 9.32 9 10 C5.7 10 2.4 10 -1 10 C-1.125 3.375 -1.125 3.375 0 0 Z " fill="#2A2939" transform="translate(956,246)"/>
<path d="M0 0 C0.99 0 1.98 0 3 0 C3 1.32 3 2.64 3 4 C3.99 4 4.98 4 6 4 C6.37451539 12.57224113 6.2551693 17.93103837 0.75 24.8125 C-2.54629151 27.43455006 -4.84903546 27.75582562 -9 28 C-6 26 -6 26 -3.5625 24.75 C-0.19227583 22.44838349 1.21548508 20.70121613 3 17 C3.84558199 10.68632112 3.54381807 5.46338619 0 0 Z " fill="#EFFCBC" transform="translate(468,82)"/>
<path d="M0 0 C3.34640065 0.46849609 6.6784145 0.93970272 10 1.5625 C13.36632112 2.05342183 16.60275571 2.06794489 20 2 C20.2475 2.78375 20.495 3.5675 20.75 4.375 C22.15389099 7.32317108 23.00675737 7.9024777 26 9 C26 9.99 26 10.98 26 12 C25.39800781 11.41734375 24.79601563 10.8346875 24.17578125 10.234375 C19.81714154 7.16777978 15.24172151 5.83177785 10.1875 4.25 C9.20845703 3.93417969 8.22941406 3.61835938 7.22070312 3.29296875 C4.81670443 2.51899844 2.40999367 1.75505283 0 1 C0 0.67 0 0.34 0 0 Z " fill="#4E2C94" transform="translate(1088,128)"/>
<path d="M0 0 C1.65 0 3.3 0 5 0 C5.625 1.75 5.625 1.75 6 4 C5.33333333 5.33333333 4.66666667 6.66666667 4 8 C4.29805007 10.19747131 4.29805007 10.19747131 5 12 C3.35 12 1.7 12 0 12 C-0.33333333 10.66666667 -0.66666667 9.33333333 -1 8 C-1.226875 7.34 -1.45375 6.68 -1.6875 6 C-2.09205762 3.41083122 -1.33413341 2.19739621 0 0 Z " fill="#3D3B48" transform="translate(1099,237)"/>
<path d="M0 0 C0 3.96371154 -1.49924573 4.99909488 -4 8 C-4.495 8.825 -4.99 9.65 -5.5 10.5 C-7.14261824 13.23769706 -8.84424198 15.64213967 -11 18 C-11.99 18 -12.98 18 -14 18 C-14.309375 18.61875 -14.61875 19.2375 -14.9375 19.875 C-15.625 21.25 -16.3125 22.625 -17 24 C-17.66 24 -18.32 24 -19 24 C-17.72296757 21.25021564 -16.34750772 19.03950753 -14.35546875 16.7578125 C-13.84306641 16.16613281 -13.33066406 15.57445312 -12.80273438 14.96484375 C-12.26970703 14.35769531 -11.73667969 13.75054687 -11.1875 13.125 C-10.13893712 11.91960633 -9.09075636 10.71388014 -8.04296875 9.5078125 C-7.53556152 8.92547852 -7.0281543 8.34314453 -6.50537109 7.74316406 C-4.30139296 5.19103888 -2.14932034 2.59825416 0 0 Z " fill="#532E98" transform="translate(346,165)"/>
<path d="M0 0 C3.96 0 7.92 0 12 0 C12 0.99 12 1.98 12 3 C10.54207116 3.05399736 9.08357288 3.09279177 7.625 3.125 C6.81289063 3.14820313 6.00078125 3.17140625 5.1640625 3.1953125 C3 3 3 3 1 1 C1 6.94 1 12.88 1 19 C4.63 18.67 8.26 18.34 12 18 C12 18.66 12 19.32 12 20 C8.04 20 4.08 20 0 20 C0 13.4 0 6.8 0 0 Z " fill="#0E0C1D" transform="translate(926,237)"/>
<path d="M0 0 C0.66 0.33 1.32 0.66 2 1 C1.01 1.33 0.02 1.66 -1 2 C-1.268125 2.5775 -1.53625 3.155 -1.8125 3.75 C-3 6 -3 6 -6.0625 8.4375 C-9.28947268 11.25251872 -9.35408865 12.01687999 -10 16 C-12.0625 17.3125 -12.0625 17.3125 -14 18 C-13.12642811 11.56733427 -9.1755938 6.59570276 -4.203125 2.53125 C-2.84231398 1.62404265 -1.42638236 0.80016572 0 0 Z " fill="#4E299D" transform="translate(992,84)"/>
<path d="M0 0 C3.31893403 1.14088357 6.08202476 2.65034199 9 4.5625 C12.06706866 6.54199647 14.41158382 7.32111045 18 8 C19.67523395 9.32255312 21.34106818 10.65705519 23 12 C25.29613618 13.14087768 27.60900583 14.06235523 30 15 C24.65724365 16.78091878 19.83457088 13.40646985 15 11 C1.7044115 3.408823 1.7044115 3.408823 0 0 Z " fill="#533195" transform="translate(261,260)"/>
<path d="M0 0 C5.94 0 11.88 0 18 0 C18 1.65 18 3.3 18 5 C17.67 4.01 17.34 3.02 17 2 C12.05 2 7.1 2 2 2 C2 4.31 2 6.62 2 9 C1.34 8.34 0.68 7.68 0 7 C0 4.69 0 2.38 0 0 Z " fill="#5F409B" transform="translate(1065,140)"/>
<path d="M0 0 C1.31387695 -0.0309375 1.31387695 -0.0309375 2.65429688 -0.0625 C3.49154297 -0.06765625 4.32878906 -0.0728125 5.19140625 -0.078125 C5.95783447 -0.0874707 6.7242627 -0.09681641 7.51391602 -0.10644531 C8.14869873 0.01118164 8.78348145 0.12880859 9.4375 0.25 C10.0975 1.24 10.7575 2.23 11.4375 3.25 C2.5275 3.25 -6.3825 3.25 -15.5625 3.25 C-10.38284425 -0.20310384 -6.006906 0.03551755 0 0 Z " fill="#5531A0" transform="translate(1012.5625,78.75)"/>
<path d="M0 0 C4.8321733 1.82932275 7.90362257 5.95968125 11.2265625 9.74414062 C15.27212394 14.04647993 18.11022635 14.78965094 24 15 C23.67 15.99 23.34 16.98 23 18 C17.90548378 18 15.5331101 16.96031135 11.81640625 13.4375 C10.38279009 11.97349382 8.96511826 10.4937307 7.5625 9 C6.83095703 8.24976563 6.09941406 7.49953125 5.34570312 6.7265625 C0 1.19618056 0 1.19618056 0 0 Z " fill="#4F3092" transform="translate(387,156)"/>
<path d="M0 0 C1.45823212 -0.0270043 2.91660675 -0.04639787 4.375 -0.0625 C5.18710937 -0.07410156 5.99921875 -0.08570312 6.8359375 -0.09765625 C9 0 9 0 11 1 C11 6.61 11 12.22 11 18 C10.34 17.67 9.68 17.34 9 17 C9.0309375 15.6078125 9.0309375 15.6078125 9.0625 14.1875 C9.15769604 10.97713989 9.15769604 10.97713989 8 8 C8.27571139 5.99124558 8.60235737 3.98821313 9 2 C5.7 2 2.4 2 -1 2 C-0.67 1.34 -0.34 0.68 0 0 Z " fill="#383943" transform="translate(736,100)"/>
<path d="M0 0 C0.66 0.33 1.32 0.66 2 1 C2.25712425 4.99870991 2.47561178 8.99865829 2.6875 13 C2.76033203 14.12535156 2.83316406 15.25070313 2.90820312 16.41015625 C3.24178157 23.12096958 2.90385463 27.9086237 0 34 C-0.66 34 -1.32 34 -2 34 C-1.67257812 32.78441406 -1.34515625 31.56882813 -1.0078125 30.31640625 C0.35197538 24.19736078 0.21860809 18.1768391 0.125 11.9375 C0.11597656 10.78572266 0.10695313 9.63394531 0.09765625 8.44726562 C0.07428714 5.63128807 0.04152565 2.81575842 0 0 Z " fill="#EAD8FB" transform="translate(1053,110)"/>
<path d="M0 0 C1.73546076 2.60319113 2.65175233 4.52267237 3.625 7.4375 C3.88539062 8.19933594 4.14578125 8.96117187 4.4140625 9.74609375 C5 12 5 12 5 16 C3.68 16 2.36 16 1 16 C0.63409254 14.27327966 0.28277805 12.54346345 -0.0625 10.8125 C-0.35833984 9.36810547 -0.35833984 9.36810547 -0.66015625 7.89453125 C-1.00423947 4.96389138 -0.74164697 2.83692932 0 0 Z " fill="#343342" transform="translate(1105,242)"/>
<path d="M0 0 C2.10494301 0.08708038 4.20902142 0.19525693 6.3125 0.3125 C8.07013672 0.39951172 8.07013672 0.39951172 9.86328125 0.48828125 C13.0983686 1.01604768 14.08684881 1.42380724 16 4 C12.9020403 5.54897985 9.73783448 4.83239539 6.375 4.5625 C5.66859375 4.51029297 4.9621875 4.45808594 4.234375 4.40429688 C2.48920013 4.27458793 0.74454275 4.13795046 -1 4 C-0.67 2.68 -0.34 1.36 0 0 Z " fill="#333242" transform="translate(803,148)"/>
<path d="M0 0 C0.99 0 1.98 0 3 0 C3 3.66666667 3 7.33333333 3 11 C3.7763932 14.0745356 3.7763932 14.0745356 6 16 C3.1048317 15.70049983 2.16176506 15.19065168 0.25 12.9375 C-1.42741156 8.99558282 -1.28009218 6.27140573 -1 2 C-0.67 1.34 -0.34 0.68 0 0 Z " fill="#2C2B39" transform="translate(1061,241)"/>
<path d="M0 0 C-0.33 0.99 -0.66 1.98 -1 3 C-1.69996094 2.51144531 -2.39992188 2.02289063 -3.12109375 1.51953125 C-6.39921348 -0.21071105 -8.38502469 -0.37293891 -12.0625 -0.3125 C-13.59583984 -0.30669922 -13.59583984 -0.30669922 -15.16015625 -0.30078125 C-17.94132634 -0.0062144 -19.62614466 0.57113264 -22 2 C-22 0.68 -22 -0.64 -22 -2 C-13.87509727 -3.66664671 -7.43400188 -3.79608606 0 0 Z " fill="#F2FDC2" transform="translate(468,79)"/>
<path d="M0 0 C0.33 1.32 0.66 2.64 1 4 C-1.97 4 -4.94 4 -8 4 C-8 5.32 -8 6.64 -8 8 C-5.69 8 -3.38 8 -1 8 C-1 8.33 -1 8.66 -1 9 C-3.97 9 -6.94 9 -10 9 C-10.33 9.99 -10.66 10.98 -11 12 C-11 8.37 -11 4.74 -11 1 C-7.37 1.66 -3.74 2.32 0 3 C0 2.01 0 1.02 0 0 Z " fill="#5E5C69" transform="translate(966,237)"/>
<path d="M0 0 C0.33 0 0.66 0 1 0 C1 1.65 1 3.3 1 5 C3.97 5 6.94 5 10 5 C10 6.32 10 7.64 10 9 C5.71 9 1.42 9 -3 9 C-3 8.67 -3 8.34 -3 8 C0.96 8 4.92 8 9 8 C9 7.34 9 6.68 9 6 C8.01 6.495 8.01 6.495 7 7 C5.45976004 7.06950541 3.91665012 7.08452357 2.375 7.0625 C1.14910156 7.04896484 1.14910156 7.04896484 -0.1015625 7.03515625 C-1.04128906 7.01775391 -1.04128906 7.01775391 -2 7 C-2.125 4.625 -2.125 4.625 -2 2 C-1.34 1.34 -0.68 0.68 0 0 Z " fill="#454350" transform="translate(700,249)"/>
<path d="M0 0 C0.99 0.66 1.98 1.32 3 2 C2.67 2.99 2.34 3.98 2 5 C-6.57142857 4 -6.57142857 4 -10 3 C-10.33 3.66 -10.66 4.32 -11 5 C-10.625 3.0625 -10.625 3.0625 -10 1 C-6.87293041 -0.5635348 -3.42017557 -0.39958487 0 0 Z " fill="#272633" transform="translate(847,237)"/>
<path d="M0 0 C2 3 2 3 2 6 C-4.27 6 -10.54 6 -17 6 C-16.67 5.01 -16.34 4.02 -16 3 C-10.72 3.33 -5.44 3.66 0 4 C0 2.68 0 1.36 0 0 Z " fill="#1F1E2B" transform="translate(613,104)"/>
<path d="M0 0 C1.32 0.33 2.64 0.66 4 1 C3.26523437 1.82177734 3.26523437 1.82177734 2.515625 2.66015625 C0.67413466 5.50307562 0.6569366 7.08256444 0.75 10.4375 C0.76546875 11.36433594 0.7809375 12.29117188 0.796875 13.24609375 C0.99307945 15.90617325 1.41495394 18.40031954 2 21 C0.0234375 19.86328125 0.0234375 19.86328125 -2 18 C-3.02437464 11.98396926 -2.48602211 5.59354976 0 0 Z " fill="#F2FEC6" transform="translate(441,82)"/>
<path d="M0 0 C0.61875 0.33 1.2375 0.66 1.875 1 C3.91018344 2.14193235 3.91018344 2.14193235 6 2 C6.33 3.98 6.66 5.96 7 8 C6.01 8.495 6.01 8.495 5 9 C4.67 8.34 4.34 7.68 4 7 C3.67 7.33 3.34 7.66 3 8 C1.33382885 8.04063832 -0.33388095 8.042721 -2 8 C-1.125 2.25 -1.125 2.25 0 0 Z " fill="#585865" transform="translate(872,242)"/>
<path d="M0 0 C0.66 0.33 1.32 0.66 2 1 C2 2.65 2 4.3 2 6 C-3.94 6 -9.88 6 -16 6 C-16 5.34 -16 4.68 -16 4 C-10.72 4 -5.44 4 0 4 C0 2.68 0 1.36 0 0 Z " fill="#56359A" transform="translate(1131,100)"/>
<path d="M0 0 C1.02222656 -0.00773437 2.04445313 -0.01546875 3.09765625 -0.0234375 C6.24007047 0.41745143 7.61512023 1.26982121 9.9375 3.375 C9.091875 3.35179688 8.24625 3.32859375 7.375 3.3046875 C0.83357279 3.20061934 -4.81107746 3.4137694 -11.0625 5.375 C-11.0625 4.715 -11.0625 4.055 -11.0625 3.375 C-7.36376643 0.58221774 -4.58649912 -0.03479013 0 0 Z " fill="#C5EF54" transform="translate(456.0625,77.625)"/>
<path d="M0 0 C0.33 0.66 0.66 1.32 1 2 C0.34 2 -0.32 2 -1 2 C-0.95875 3.051875 -0.9175 4.10375 -0.875 5.1875 C-0.99147875 8.74010173 -1.47208068 10.84866641 -3 14 C-3.99 13.67 -4.98 13.34 -6 13 C-5.57835981 11.01739401 -5.13721222 9.03892755 -4.6875 7.0625 C-4.44386719 5.96035156 -4.20023438 4.85820312 -3.94921875 3.72265625 C-3.47935547 2.37494141 -3.47935547 2.37494141 -3 1 C-2.01 0.67 -1.02 0.34 0 0 Z " fill="#242230" transform="translate(669,240)"/>
<path d="M0 0 C2.5654594 2.5654594 2.54046087 4.47686668 3 8 C-0.34252724 8.07427838 -2.8035914 8.06546953 -6 7 C-5.67 5.35 -5.34 3.7 -5 2 C-4.34 2.33 -3.68 2.66 -3 3 C-2.01 2.01 -1.02 1.02 0 0 Z " fill="#43404F" transform="translate(531,242)"/>
<path d="M0 0 C0 0.99 0 1.98 0 3 C-2.45382134 4.22691067 -4.19984103 4.20175931 -6.9375 4.25 C-8.25041016 4.28867188 -8.25041016 4.28867188 -9.58984375 4.328125 C-12.4193869 3.94290357 -13.25132925 3.19305243 -15 1 C-13.06263299 0.83179449 -11.12510094 0.66548905 -9.1875 0.5 C-7.56908203 0.36078125 -7.56908203 0.36078125 -5.91796875 0.21875 C-3 0 -3 0 0 0 Z " fill="#2F2F3E" transform="translate(663,156)"/>
<path d="M0 0 C1.8125 0.125 1.8125 0.125 4 1 C5.0650015 2.96615661 6.06833174 4.96726926 7 7 C7.66 7.33 8.32 7.66 9 8 C9 8.66 9 9.32 9 10 C8.01 10 7.02 10 6 10 C6 9.34 6 8.68 6 8 C3.525 7.01 3.525 7.01 1 6 C0.67 6.66 0.34 7.32 0 8 C0 5.36 0 2.72 0 0 Z " fill="#F1F0F5" transform="translate(729,250)"/>
<path d="M0 0 C0.969375 0.78375 1.93875 1.5675 2.9375 2.375 C7.02790658 5.33383919 11.07008811 6.25101112 16 7 C16 7.33 16 7.66 16 8 C11 8 6 8 1 8 C1.020625 7.236875 1.04125 6.47375 1.0625 5.6875 C1.12942841 2.89814214 1.12942841 2.89814214 0 0 Z " fill="#F2F7D5" transform="translate(443,103)"/>
<path d="M0 0 C3.3 0 6.6 0 10 0 C10.33 0.99 10.66 1.98 11 3 C7.36576791 5.32590854 4.22911669 5.16265833 0 5 C0 3.35 0 1.7 0 0 Z " fill="#40414A" transform="translate(839,253)"/>
<path d="M0 0 C0.33 0 0.66 0 1 0 C1 3 1 6 1 9 C-1.64 9 -4.28 9 -7 9 C-7 7.35 -7 5.7 -7 4 C-4.69 4 -2.38 4 0 4 C0 2.68 0 1.36 0 0 Z " fill="#EAE8F2" transform="translate(965,245)"/>
<path d="M0 0 C2.64 0 5.28 0 8 0 C7.01 0.495 7.01 0.495 6 1 C6 1.99 6 2.98 6 4 C7.32 4 8.64 4 10 4 C9.67 5.32 9.34 6.64 9 8 C9 7.01 9 6.02 9 5 C6.03 5 3.06 5 0 5 C0 3.35 0 1.7 0 0 Z " fill="#E2E1EB" transform="translate(759,249)"/>
<path d="M0 0 C1.66611905 -0.042721 3.33382885 -0.04063832 5 0 C6 1 6 1 6.0625 3.5625 C6.041875 4.366875 6.02125 5.17125 6 6 C4.02 6.33 2.04 6.66 0 7 C0 4.69 0 2.38 0 0 Z " fill="#D7D8DF" transform="translate(598,240)"/>
<path d="M0 0 C3.3 0 6.6 0 10 0 C10.33 1.65 10.66 3.3 11 5 C8.69 4.67 6.38 4.34 4 4 C3.67 3.01 3.34 2.02 3 1 C2.34 1 1.68 1 1 1 C1 4.63 1 8.26 1 12 C0.67 12 0.34 12 0 12 C0 8.04 0 4.08 0 0 Z " fill="#191826" transform="translate(725,237)"/>
<path d="M0 0 C0 4.35243435 -2.64470425 6.49881137 -5.375 9.625 C-6.13683594 10.5221875 -6.13683594 10.5221875 -6.9140625 11.4375 C-10.71335565 15.85667783 -10.71335565 15.85667783 -13 17 C-12.34 15.02 -11.68 13.04 -11 11 C-10.34 11 -9.68 11 -9 11 C-9 10.01 -9 9.02 -9 8 C-8.360625 7.731875 -7.72125 7.46375 -7.0625 7.1875 C-4.66868314 6.11332248 -4.66868314 6.11332248 -4 3 C-1.9375 1.3125 -1.9375 1.3125 0 0 Z " fill="#503091" transform="translate(374,155)"/>
<path d="M0 0 C0.33 0 0.66 0 1 0 C1 6.93 1 13.86 1 21 C-3.40767604 22.10191901 -4.8922935 21.58706842 -9 20 C-9 19.34 -9 18.68 -9 18 C-6.03 18.33 -3.06 18.66 0 19 C0 12.73 0 6.46 0 0 Z " fill="#6038B3" transform="translate(459,115)"/>
<path d="M0 0 C2.38594197 1.19297098 2.83734847 2.14357265 4.125 4.4375 C4.47820313 5.05496094 4.83140625 5.67242187 5.1953125 6.30859375 C6 8 6 8 6 10 C4.35 10 2.7 10 1 10 C0.01 7.69 -0.98 5.38 -2 3 C-1.34 3 -0.68 3 0 3 C0 2.01 0 1.02 0 0 Z " fill="#3D3D48" transform="translate(991,248)"/>
<path d="M0 0 C2.88392011 2.88392011 3.15369981 5.39843851 3.1875 9.3125 C3.15564515 13.21153357 2.49196819 16.36332754 1 20 C0.67 20 0.34 20 0 20 C0 13.4 0 6.8 0 0 Z " fill="#5636A0" transform="translate(1131,133)"/>
<path d="M0 0 C3.06032501 2.04021667 4.6509194 3.57357405 6 7 C6.265625 9.7265625 6.265625 9.7265625 6.25 12.625 C6.25773437 14.06746094 6.25773437 14.06746094 6.265625 15.5390625 C6 18 6 18 4 20 C3.81824219 18.33710937 3.81824219 18.33710937 3.6328125 16.640625 C3.46393704 15.17703766 3.29464428 13.71349843 3.125 12.25 C3.04636719 11.52039063 2.96773438 10.79078125 2.88671875 10.0390625 C2.44863824 6.33222743 2.0013785 3.19547828 0 0 Z " fill="#C1EC51" transform="translate(466,81)"/>
<path d="M0 0 C-1 3 -1 3 -3 4 C-5.3329866 4.04022391 -7.66706666 4.04320247 -10 4 C-10.33 3.01 -10.66 2.02 -11 1 C-3.375 -1.125 -3.375 -1.125 0 0 Z " fill="#474654" transform="translate(1046,254)"/>
<path d="M0 0 C3.38231081 1.39957689 5.27928642 2.73064421 7 6 C7.42688224 8.85549606 7.27996013 11.06041859 7 14 C6.01 14.99 5.02 15.98 4 17 C4.33 13.37 4.66 9.74 5 6 C4.34 6 3.68 6 3 6 C0 2.53846154 0 2.53846154 0 0 Z " fill="#32313F" transform="translate(635,237)"/>
<path d="M0 0 C1.67542976 0.28604898 3.34385343 0.61781233 5 1 C5.5625 2.9375 5.5625 2.9375 6 5 C5 6 5 6 1.9375 6.0625 C0.4834375 6.0315625 0.4834375 6.0315625 -1 6 C-1.042721 4.33388095 -1.04063832 2.66617115 -1 1 C-0.67 0.67 -0.34 0.34 0 0 Z " fill="#DCDBE4" transform="translate(986,240)"/>
<path d="M0 0 C0.66 0 1.32 0 2 0 C2.226875 1.27875 2.45375 2.5575 2.6875 3.875 C3.16100084 6.06932132 3.16100084 6.06932132 4 8 C6.48313064 9.59688639 6.48313064 9.59688639 9 10 C6.75804887 11.36118461 5.52173238 12.06138028 2.875 11.75 C1 11 1 11 -1 9 C-0.67 8.01 -0.34 7.02 0 6 C0 5.34 0 4.68 0 4 C0 2.68 0 1.36 0 0 Z " fill="#1B1B29" transform="translate(625,245)"/>
<path d="M0 0 C0.66 0.33 1.32 0.66 2 1 C2 2.98 2 4.96 2 7 C-1.96 6.67 -5.92 6.34 -10 6 C-10 5.67 -10 5.34 -10 5 C-6.535 4.505 -6.535 4.505 -3 4 C-3.99 3.34 -4.98 2.68 -6 2 C-4.02 2 -2.04 2 0 2 C0 1.34 0 0.68 0 0 Z " fill="#1D1E2B" transform="translate(744,110)"/>
<path d="M0 0 C3.63 0 7.26 0 11 0 C11 1.32 11 2.64 11 4 C6.71 4 2.42 4 -2 4 C-1.34 2.68 -0.68 1.36 0 0 Z " fill="#4F4E58" transform="translate(757,254)"/>
<path d="M0 0 C2.64 0 5.28 0 8 0 C8 0.99 8 1.98 8 3 C6.35 3 4.7 3 3 3 C3 2.34 3 1.68 3 1 C2.34 1 1.68 1 1 1 C1 7.27 1 13.54 1 20 C0.67 20 0.34 20 0 20 C0 13.4 0 6.8 0 0 Z " fill="#171725" transform="translate(595,237)"/>
<path d="M0 0 C2 2 2 2 2.1953125 4.6015625 C2.17210937 5.59929687 2.14890625 6.59703125 2.125 7.625 C2.10695313 8.62789062 2.08890625 9.63078125 2.0703125 10.6640625 C2.03550781 11.82035156 2.03550781 11.82035156 2 13 C0.68 13 -0.64 13 -2 13 C-2.05447047 11.58376784 -2.09300508 10.16691809 -2.125 8.75 C-2.14820313 7.96109375 -2.17140625 7.1721875 -2.1953125 6.359375 C-1.9828378 3.79268059 -1.28654105 2.2083933 0 0 Z " fill="#343340" transform="translate(557,245)"/>
<path d="M0 0 C1.66611905 -0.042721 3.33382885 -0.04063832 5 0 C6 1 6 1 6.0625 3.5625 C6.041875 4.366875 6.02125 5.17125 6 6 C4.02 6 2.04 6 0 6 C0 4.02 0 2.04 0 0 Z " fill="#EAE9EF" transform="translate(729,240)"/>
<path d="M0 0 C1.65 0 3.3 0 5 0 C5.38218767 1.65614657 5.71395102 3.32457024 6 5 C5 6 5 6 2.4375 6.0625 C1.2309375 6.0315625 1.2309375 6.0315625 0 6 C0 4.02 0 2.04 0 0 Z " fill="#E4E3EA" transform="translate(900,240)"/>
<path d="M0 0 C1.485 0.99 1.485 0.99 3 2 C3.05632424 4.80435411 2.95814702 7.35146678 2.6875 10.125 C2.62626953 10.87910156 2.56503906 11.63320312 2.50195312 12.41015625 C2.3485467 14.27463438 2.17606541 16.13752498 2 18 C1.67 18 1.34 18 1 18 C-0.32594359 12.03325384 -0.0884587 6.07416385 0 0 Z " fill="#492D77" transform="translate(442,173)"/>
<path d="M0 0 C2.19050021 0.09017996 4.378466 0.24666208 6.5625 0.4375 C7.76003906 0.53933594 8.95757813 0.64117187 10.19140625 0.74609375 C11.11824219 0.82988281 12.04507813 0.91367188 13 1 C13 1.66 13 2.32 13 3 C9.04 3 5.08 3 1 3 C0.67 3.99 0.34 4.98 0 6 C-0.38218767 4.34385343 -0.71395102 2.67542976 -1 1 C-0.67 0.67 -0.34 0.34 0 0 Z " fill="#2E2D3D" transform="translate(596,138)"/>
<path d="M0 0 C0.66 0.33 1.32 0.66 2 1 C2.4140625 3.06640625 2.4140625 3.06640625 2.625 5.5625 C2.69976563 6.38878906 2.77453125 7.21507812 2.8515625 8.06640625 C2.90054688 8.70449219 2.94953125 9.34257812 3 10 C1.35 10.66 -0.3 11.32 -2 12 C-1.34 8.04 -0.68 4.08 0 0 Z " fill="#D5D4DD" transform="translate(668,243)"/>
<path d="M0 0 C1.32 0 2.64 0 4 0 C5.42944945 2.35438733 6.08661261 3.48032433 5.625 6.25 C5.41875 6.8275 5.2125 7.405 5 8 C3.68 7.34 2.36 6.68 1 6 C1.66 5.67 2.32 5.34 3 5 C1.68 4.67 0.36 4.34 -1 4 C-0.67 2.68 -0.34 1.36 0 0 Z " fill="#42404D" transform="translate(667,237)"/>
<path d="M0 0 C0.66 0.33 1.32 0.66 2 1 C0.71632558 2.83893824 -0.57716761 4.67102625 -1.875 6.5 C-2.95394531 8.03140625 -2.95394531 8.03140625 -4.0546875 9.59375 C-4.69664062 10.3878125 -5.33859375 11.181875 -6 12 C-6.66 12 -7.32 12 -8 12 C-7.67 10.68 -7.34 9.36 -7 8 C-6.34 8 -5.68 8 -5 8 C-4.731875 7.236875 -4.46375 6.47375 -4.1875 5.6875 C-3.05575888 3.12619116 -2.08776599 1.80307062 0 0 Z " fill="#EFE0FA" transform="translate(239,86)"/>
<path d="M0 0 C0.99 0 1.98 0 3 0 C2.67 3.3 2.34 6.6 2 10 C0.35 9.67 -1.3 9.34 -3 9 C-3 8.01 -3 7.02 -3 6 C-2.34 6 -1.68 6 -1 6 C-0.67 4.02 -0.34 2.04 0 0 Z " fill="#2A2939" transform="translate(676,247)"/>
<path d="M0 0 C0.33 0.99 0.66 1.98 1 3 C-2.06246747 4.78409802 -4.22079273 5.22880021 -7.75 5.125 C-8.54921875 5.10695312 -9.3484375 5.08890625 -10.171875 5.0703125 C-10.77515625 5.04710937 -11.3784375 5.02390625 -12 5 C-11.67 4.01 -11.34 3.02 -11 2 C-5.555 1.01 -5.555 1.01 0 0 Z " fill="#353343" transform="translate(798,154)"/>
<path d="M0 0 C0.80824219 0.10183594 1.61648438 0.20367187 2.44921875 0.30859375 C3.06410156 0.39238281 3.67898438 0.47617188 4.3125 0.5625 C0.90818053 2.83204631 -0.85274202 2.92799949 -4.875 3.1875 C-5.96167969 3.26226562 -7.04835938 3.33703125 -8.16796875 3.4140625 C-8.99941406 3.46304688 -9.83085938 3.51203125 -10.6875 3.5625 C-9.6975 3.2325 -8.7075 2.9025 -7.6875 2.5625 C-7.6875 1.9025 -7.6875 1.2425 -7.6875 0.5625 C-4.59271121 -0.46909626 -3.16118607 -0.41232862 0 0 Z " fill="#21212E" transform="translate(661.6875,137.4375)"/>
<path d="M0 0 C0.99 0 1.98 0 3 0 C3 1.65 3 3.3 3 5 C5.31 5 7.62 5 10 5 C10 5.66 10 6.32 10 7 C6.7 7 3.4 7 0 7 C0 4.69 0 2.38 0 0 Z " fill="#3A3748" transform="translate(955,249)"/>
<path d="M0 0 C0.69480469 0.28617188 1.38960937 0.57234375 2.10546875 0.8671875 C5.1464265 2.05730592 8.21132475 3.10263453 11.3125 4.125 C12.38113281 4.47820312 13.44976563 4.83140625 14.55078125 5.1953125 C15.35902344 5.46085938 16.16726563 5.72640625 17 6 C17 6.33 17 6.66 17 7 C11.11790082 6.66288364 6.04151704 6.36101136 1 3 C0.67 2.01 0.34 1.02 0 0 Z " fill="#EFDEFC" transform="translate(989,163)"/>
<path d="M0 0 C0.33 0 0.66 0 1 0 C1.44680851 8.78723404 1.44680851 8.78723404 -2 13 C-2.99 13.33 -3.98 13.66 -5 14 C-5 11 -5 11 -3 8 C-2.34 8 -1.68 8 -1 8 C-0.67 5.36 -0.34 2.72 0 0 Z " fill="#2E2F3F" transform="translate(672,141)"/>
<path d="M0 0 C0.66 0.33 1.32 0.66 2 1 C1.67 2.32 1.34 3.64 1 5 C3.97 5.33 6.94 5.66 10 6 C10 6.33 10 6.66 10 7 C8.9275 6.979375 7.855 6.95875 6.75 6.9375 C3.85209576 6.9857984 1.71387859 7.13155885 -1 8 C-2.2077558 4.37673261 -1.54311128 3.35853631 0 0 Z " fill="#393944" transform="translate(632,113)"/>
<path d="M0 0 C2.25 -0.375 2.25 -0.375 5 0 C8.08644287 3.336695 9.24204985 5.90701698 9.25 10.375 C9.1675 11.57125 9.085 12.7675 9 14 C8.67 14 8.34 14 8 14 C7.92523437 13.37351563 7.85046875 12.74703125 7.7734375 12.1015625 C7.37001553 9.59401809 6.93390509 7.36502817 6 5 C3.01716843 3.30834699 3.01716843 3.30834699 0 3 C0 2.01 0 1.02 0 0 Z " fill="#12111F" transform="translate(630,237)"/>
<path d="M0 0 C-3 2 -3 2 -5.5625 3.4375 C-8.65733266 5.42136709 -9.79323455 7.11090858 -10.625 10.6875 C-10.74875 11.450625 -10.8725 12.21375 -11 13 C-11.33 13 -11.66 13 -12 13 C-12.4375 9.875 -12.4375 9.875 -12 6 C-8.87690221 1.93291502 -5.33253663 -0.96955211 0 0 Z " fill="#EDDCF9" transform="translate(1098,95)"/>
<path d="M0 0 C0 3.56216738 -0.7021901 4.22928478 -2.875 6.9375 C-4.94538063 9.53297716 -6.60834145 11.98023607 -8 15 C-8.99 14.67 -9.98 14.34 -11 14 C-9.54362329 12.04018443 -8.08499848 10.08211453 -6.625 8.125 C-6.2125 7.56941406 -5.8 7.01382813 -5.375 6.44140625 C-3.6745427 4.1649876 -2.0120881 2.0120881 0 0 Z " fill="#502E92" transform="translate(244,83)"/>
<path d="M0 0 C0.99 0.33 1.98 0.66 3 1 C3.73046875 2.84765625 3.73046875 2.84765625 4.1875 5.0625 C4.34605469 5.79597656 4.50460937 6.52945313 4.66796875 7.28515625 C4.83232422 8.13400391 4.83232422 8.13400391 5 9 C3.35 8.67 1.7 8.34 0 8 C0 6.02 0 4.04 0 2 C-0.66 1.67 -1.32 1.34 -2 1 C-1.34 0.67 -0.68 0.34 0 0 Z " fill="#42414C" transform="translate(536,249)"/>
<path d="M0 0 C3.73584906 1.47169811 3.73584906 1.47169811 5 4 C4.34 4 3.68 4 3 4 C3 5.65 3 7.3 3 9 C2.01 9 1.02 9 0 9 C0 6.69 0 4.38 0 2 C-0.66 1.67 -1.32 1.34 -2 1 C-1.34 0.67 -0.68 0.34 0 0 Z " fill="#30313F" transform="translate(603,237)"/>
<path d="M0 0 C-0.99 0.66 -1.98 1.32 -3 2 C-4.010625 2.70125 -5.02125 3.4025 -6.0625 4.125 C-9 6 -9 6 -11 6 C-9.55369928 1.42004773 -9.55369928 1.42004773 -7.1875 -0.375 C-4.4719851 -1.1508614 -2.69201151 -0.74778098 0 0 Z " fill="#EAE9ED" transform="translate(657,142)"/>
<path d="M0 0 C0.33 0.99 0.66 1.98 1 3 C0.27683594 3.50660156 0.27683594 3.50660156 -0.4609375 4.0234375 C-1.09257813 4.46945313 -1.72421875 4.91546875 -2.375 5.375 C-3.00148438 5.81585938 -3.62796875 6.25671875 -4.2734375 6.7109375 C-6.12380509 8.02808866 -6.12380509 8.02808866 -8 10 C-7.70179167 6.42150008 -7.25754642 5.23773516 -4.5625 2.75 C-2 1 -2 1 0 0 Z " fill="#21212D" transform="translate(734,101)"/>
<path d="M0 0 C0.66 0.33 1.32 0.66 2 1 C-0.97 4.3 -3.94 7.6 -7 11 C-7.99 10.67 -8.98 10.34 -10 10 C-6.7 6.7 -3.4 3.4 0 0 Z " fill="#512B9C" transform="translate(255,72)"/>
<path d="M0 0 C0 0.33 0 0.66 0 1 C-1.65 1.33 -3.3 1.66 -5 2 C-5 2.33 -5 2.66 -5 3 C-6.43534841 3.2226746 -7.87345525 3.42761906 -9.3125 3.625 C-10.11300781 3.74101563 -10.91351563 3.85703125 -11.73828125 3.9765625 C-14 4 -14 4 -17 2 C-11.19233704 0.4943096 -6.0018137 -0.21824777 0 0 Z " fill="#7252B3" transform="translate(322,44)"/>
<path d="M0 0 C0.33 0 0.66 0 1 0 C1.33 2.31 1.66 4.62 2 7 C2.99 7 3.98 7 5 7 C5.33 8.98 5.66 10.96 6 13 C2.83884224 11.63016497 2.0072908 11.0109362 0 8 C-0.25760279 5.30547479 -0.08900053 2.71451625 0 0 Z " fill="#1E1F28" transform="translate(834,244)"/>
<path d="M0 0 C0.99 0 1.98 0 3 0 C2.979375 1.051875 2.95875 2.10375 2.9375 3.1875 C2.98896802 6.32704904 3.26517187 8.96883396 4 12 C2.68 11.34 1.36 10.68 0 10 C0 6.7 0 3.4 0 0 Z " fill="#373746" transform="translate(623,242)"/>
<path d="M0 0 C0.33 0 0.66 0 1 0 C1.08074203 2.62561109 1.1403623 5.24875676 1.1875 7.875 C1.22520508 8.99455078 1.22520508 8.99455078 1.26367188 10.13671875 C1.29296875 12.3046875 1.29296875 12.3046875 1 16 C0.01 16.66 -0.98 17.32 -2 18 C-1.34 12.06 -0.68 6.12 0 0 Z " fill="#E3D2F1" transform="translate(446,169)"/>
<path d="M0 0 C2.4375 0.8125 2.4375 0.8125 5 2 C5.33 2.99 5.66 3.98 6 5 C8.01508358 5.73323796 8.01508358 5.73323796 10 6 C10 6.66 10 7.32 10 8 C5.60316512 6.80086322 2.90159066 5.5711885 0 2 C0 1.34 0 0.68 0 0 Z " fill="#DFDEE3" transform="translate(777,148)"/>
<path d="M0 0 C0.99 0 1.98 0 3 0 C2.46884894 4.51478398 0.63379708 7.34666857 -2 11 C-2.93423645 7.98968256 -3.04449911 7.13349732 -2 4 C-1.34 4 -0.68 4 0 4 C0.33 3.34 0.66 2.68 1 2 C0.34 1.67 -0.32 1.34 -1 1 C-0.67 0.67 -0.34 0.34 0 0 Z " fill="#4C29A1" transform="translate(1047,144)"/>
<path d="M0 0 C0.2475 0.78375 0.495 1.5675 0.75 2.375 C2.15389099 5.32317108 3.00675737 5.9024777 6 7 C6 7.99 6 8.98 6 10 C1.3164557 6.32911392 1.3164557 6.32911392 -0.5625 4.375 C-2.22546327 2.78433948 -3.91031534 1.93675519 -6 1 C-3.92446352 0.4465236 -2.15634036 0 0 0 Z " fill="#542FA1" transform="translate(1108,130)"/>
<path d="M0 0 C0 0.66 0 1.32 0 2 C-0.763125 2.28875 -1.52625 2.5775 -2.3125 2.875 C-5.15029308 3.96269013 -5.15029308 3.96269013 -8 6 C-8.33 4.68 -8.66 3.36 -9 2 C-3.375 -1.125 -3.375 -1.125 0 0 Z " fill="#333340" transform="translate(656,113)"/>
<path d="M0 0 C-0.17625835 2.37948772 -0.69719773 3.70225849 -2.40234375 5.37890625 C-3.90649092 6.62115486 -5.45129851 7.81376056 -7 9 C-4.83333333 0 -4.83333333 0 0 0 Z " fill="#5837A1" transform="translate(278,105)"/>
<path d="M0 0 C4.87543112 0.62505527 6.6460113 2.6460113 10 6 C9.34 6.66 8.68 7.32 8 8 C6.53515625 6.76302083 5.0703125 5.52604167 3.60546875 4.2890625 C2.1344954 3.10798901 0.56962206 2.04641471 -1 1 C-0.67 0.67 -0.34 0.34 0 0 Z " fill="#30303D" transform="translate(584,94)"/>
<path d="M0 0 C1.20628008 2.33214148 2.1654738 4.49642139 3 7 C1.35 7 -0.3 7 -2 7 C-2.6875 5.1875 -2.6875 5.1875 -3 3 C-1.5625 1.25 -1.5625 1.25 0 0 Z " fill="#3E3D49" transform="translate(879,251)"/>
<path d="M0 0 C5.53846154 -0.36923077 5.53846154 -0.36923077 7.875 1.5 C8.24625 1.995 8.6175 2.49 9 3 C8.67 3.99 8.34 4.98 8 6 C7.67 5.34 7.34 4.68 7 4 C4.6859378 3.26924352 2.35171131 2.59861742 0 2 C0 1.34 0 0.68 0 0 Z " fill="#1A1825" transform="translate(528,250)"/>
<path d="M0 0 C1.2065625 0.0309375 1.2065625 0.0309375 2.4375 0.0625 C2.1075 1.0525 1.7775 2.0425 1.4375 3.0625 C0.4475 3.0625 -0.5425 3.0625 -1.5625 3.0625 C-1.68625 3.866875 -1.81 4.67125 -1.9375 5.5 C-2.14375 6.345625 -2.35 7.19125 -2.5625 8.0625 C-3.5525 8.5575 -3.5525 8.5575 -4.5625 9.0625 C-3.56521739 0.08695652 -3.56521739 0.08695652 0 0 Z " fill="#23212F" transform="translate(531.5625,236.9375)"/>
<path d="M0 0 C0.33 0 0.66 0 1 0 C1 2.31 1 4.62 1 7 C0.34 7 -0.32 7 -1 7 C-1.33 7.66 -1.66 8.32 -2 9 C-3 8 -3 8 -3.0625 4.9375 C-3.041875 3.968125 -3.02125 2.99875 -3 2 C-2.01 2 -1.02 2 0 2 C0 1.34 0 0.68 0 0 Z " fill="#6238BB" transform="translate(445,158)"/>
<path d="M0 0 C0.66 0.33 1.32 0.66 2 1 C-0.31 3.97 -2.62 6.94 -5 10 C-5.66 9.01 -6.32 8.02 -7 7 C-4.69 4.69 -2.38 2.38 0 0 Z " fill="#EEDFF9" transform="translate(351,156)"/>
<path d="M0 0 C1.98 0 3.96 0 6 0 C5.67 0.99 5.34 1.98 5 3 C3.68 3 2.36 3 1 3 C0.34 4.32 -0.32 5.64 -1 7 C-1.66 6.67 -2.32 6.34 -3 6 C-2.01 4.02 -1.02 2.04 0 0 Z " fill="#3A3A49" transform="translate(880,148)"/>
<path d="M0 0 C4.92991345 -0.28999491 8.09251769 -0.19703098 12 3 C12 3.99 12 4.98 12 6 C9.69 5.01 7.38 4.02 5 3 C5 2.34 5 1.68 5 1 C3.35 1 1.7 1 0 1 C0 0.67 0 0.34 0 0 Z " fill="#E1E0E6" transform="translate(656,114)"/>
<path d="M0 0 C2.79872437 2.52788007 4.45773019 4.20411134 5 8 C3.35 7.67 1.7 7.34 0 7 C0 4.69 0 2.38 0 0 Z " fill="#2F2F39" transform="translate(735,250)"/>
<path d="M0 0 C0 3.96 0 7.92 0 12 C-0.33 12 -0.66 12 -1 12 C-1.33 9.36 -1.66 6.72 -2 4 C-4.31 3.67 -6.62 3.34 -9 3 C-9 2.67 -9 2.34 -9 2 C-7.68786298 1.66524067 -6.37527913 1.33223233 -5.0625 1 C-3.96615234 0.7215625 -3.96615234 0.7215625 -2.84765625 0.4375 C-1 0 -1 0 0 0 Z " fill="#171624" transform="translate(1168,245)"/>
<path d="M0 0 C0.763125 0.0825 1.52625 0.165 2.3125 0.25 C1.3225 0.58 0.3325 0.91 -0.6875 1.25 C-0.3575 2.24 -0.0275 3.23 0.3125 4.25 C-1.0075 4.58 -2.3275 4.91 -3.6875 5.25 C-4.0175 6.9 -4.3475 8.55 -4.6875 10.25 C-5.0175 10.25 -5.3475 10.25 -5.6875 10.25 C-5.90929212 6.99704886 -5.97351103 4.82202207 -4.5 1.875 C-2.6875 0.25 -2.6875 0.25 0 0 Z " fill="#BBBAC3" transform="translate(1069.6875,239.75)"/>
<path d="M0 0 C1.65 0 3.3 0 5 0 C5.33 1.65 5.66 3.3 6 5 C4.02 5.33 2.04 5.66 0 6 C-1.125 2.25 -1.125 2.25 0 0 Z " fill="#413F4F" transform="translate(530,238)"/>
<path d="M0 0 C4 4.75 4 4.75 4 7 C2.35 7 0.7 7 -1 7 C-2 4 -2 4 -1.0625 1.8125 C-0.5365625 0.9153125 -0.5365625 0.9153125 0 0 Z " fill="#4C4B55" transform="translate(907,251)"/>
<path d="M0 0 C0.99 0.33 1.98 0.66 3 1 C2.34 2.65 1.68 4.3 1 6 C0.01 6 -0.98 6 -2 6 C-2.33 5.01 -2.66 4.02 -3 3 C-2.01 2.01 -1.02 1.02 0 0 Z " fill="#373946" transform="translate(797,249)"/>
<path d="M0 0 C0 3.65351863 -0.88942301 5.06026776 -3 8 C-5.1875 9.3125 -5.1875 9.3125 -7 10 C-5.33248852 6.05860922 -2.77289351 3.2107188 0 0 Z " fill="#512D9A" transform="translate(374,131)"/>
<path d="M0 0 C0 3.58912412 -0.66436554 4.10857029 -3 6.6875 C-3.556875 7.31011719 -4.11375 7.93273437 -4.6875 8.57421875 C-5.120625 9.04472656 -5.55375 9.51523438 -6 10 C-6 6.36672806 -5.04413589 4.95264073 -3 2 C-2.01 1.34 -1.02 0.68 0 0 Z " fill="#4F2E92" transform="translate(352,181)"/>
<path d="M0 0 C-1.55500981 3.81684226 -4.03595495 6.19195732 -7 9 C-6.53149863 4.78348764 -4.94559315 0 0 0 Z " fill="#EFDFFA" transform="translate(331,182)"/>
<path d="M0 0 C0.99 0.33 1.98 0.66 3 1 C1.35 2.98 -0.3 4.96 -2 7 C-2.99 6.67 -3.98 6.34 -5 6 C-3.35 4.02 -1.7 2.04 0 0 Z " fill="#F1E3FC" transform="translate(379,151)"/>
<path d="M0 0 C1.5625 1.1875 1.5625 1.1875 3 3 C2.6875 5.6875 2.6875 5.6875 2 8 C0.68 8 -0.64 8 -2 8 C-1.34 5.36 -0.68 2.72 0 0 Z " fill="#3A3945" transform="translate(1094,250)"/>
<path d="M0 0 C1.67542976 0.28604898 3.34385343 0.61781233 5 1 C5.33 2.65 5.66 4.3 6 6 C5.01 6.495 5.01 6.495 4 7 C3.731875 6.38125 3.46375 5.7625 3.1875 5.125 C2.04443152 2.7004767 2.04443152 2.7004767 -1 1 C-0.67 0.67 -0.34 0.34 0 0 Z " fill="#3F3C4C" transform="translate(730,248)"/>
<path d="M0 0 C2.13586678 3.20380017 2.23132175 4.01939967 2.125 7.6875 C2.10695313 8.49574219 2.08890625 9.30398437 2.0703125 10.13671875 C2.03550781 11.05904297 2.03550781 11.05904297 2 12 C1.01 12 0.02 12 -1 12 C-1.33 10.68 -1.66 9.36 -2 8 C-1.67 8 -1.34 8 -1 8 C-0.67 5.36 -0.34 2.72 0 0 Z " fill="#424253" transform="translate(1076,242)"/>
<path d="M0 0 C0.33 0 0.66 0 1 0 C1.36122881 1.31057393 1.71380311 2.62353624 2.0625 3.9375 C2.25972656 4.66839844 2.45695313 5.39929688 2.66015625 6.15234375 C2.77230469 6.76207031 2.88445313 7.37179688 3 8 C2.67 8.33 2.34 8.66 2 9 C1.76924918 10.34747084 1.58846937 11.70377565 1.4375 13.0625 C1.293125 14.361875 1.14875 15.66125 1 17 C0.67 17 0.34 17 0 17 C0 11.39 0 5.78 0 0 Z " fill="#131221" transform="translate(984,240)"/>
<path d="M0 0 C0.99 0.495 0.99 0.495 2 1 C2 1.66 2 2.32 2 3 C2.99 3 3.98 3 5 3 C5.66 5.31 6.32 7.62 7 10 C3.60582235 6.87378374 1.3937282 4.43458973 0 0 Z " fill="#542E9D" transform="translate(231,227)"/>
<path d="M0 0 C1.875 0.1875 1.875 0.1875 4 1 C5.25 3.5625 5.25 3.5625 6 6 C5.01 6 4.02 6 3 6 C0 2.66666667 0 2.66666667 0 0 Z " fill="#393742" transform="translate(990,237)"/>
<path d="M0 0 C2.97 0.495 2.97 0.495 6 1 C5.67 1.66 5.34 2.32 5 3 C4.01 3.33 3.02 3.66 2 4 C1.34 4.99 0.68 5.98 0 7 C0 4.69 0 2.38 0 0 Z " fill="#E5D3F6" transform="translate(450,135)"/>
<path d="M0 0 C3.91402949 1.26941497 5.79072873 2.51167694 8 6 C4.06830895 6 2.83572772 4.60580385 0 2 C0 1.34 0 0.68 0 0 Z " fill="#E5E5EA" transform="translate(870,115)"/>
<path d="M0 0 C3.71888239 0.50712033 6.73454239 1.11608215 10 3 C5.74938644 4.41687119 3.28148375 3.19320039 -1 2 C-0.67 1.34 -0.34 0.68 0 0 Z " fill="#5A36A5" transform="translate(358,47)"/>
<path d="M0 0 C0.99 0.33 1.98 0.66 3 1 C3 1.66 3 2.32 3 3 C2.34 3 1.68 3 1 3 C1.33 4.65 1.66 6.3 2 8 C0.68 8 -0.64 8 -2 8 C-1.34 5.36 -0.68 2.72 0 0 Z " fill="#4A4853" transform="translate(524,250)"/>
<path d="M0 0 C0.66 1.32 1.32 2.64 2 4 C-0.60582371 4.93065133 -1.64198224 5.14917407 -4.25 4.0625 C-4.8275 3.711875 -5.405 3.36125 -6 3 C-4.02 2.01 -2.04 1.02 0 0 Z " fill="#1E202D" transform="translate(1074,252)"/>
<path d="M0 0 C1.74627478 2.61941217 2.38722388 4.03824877 3 7 C1.35 7 -0.3 7 -2 7 C-1.34 4.69 -0.68 2.38 0 0 Z " fill="#DFDFE8" transform="translate(1101,242)"/>
<path d="M0 0 C2.35953094 2.35953094 2.49141413 3.77895617 3 7 C1.35 7 -0.3 7 -2 7 C-1.34 4.69 -0.68 2.38 0 0 Z " fill="#ECEAF3" transform="translate(531,242)"/>
<path d="M0 0 C4.875 4.75 4.875 4.75 6 7 C5.01 7.33 4.02 7.66 3 8 C0 3.375 0 3.375 0 0 Z " fill="#313040" transform="translate(763,154)"/>
<path d="M0 0 C0.99 0.33 1.98 0.66 3 1 C2.34 2.32 1.68 3.64 1 5 C0.01 5 -0.98 5 -2 5 C-1.125 1.125 -1.125 1.125 0 0 Z " fill="#E4E5E9" transform="translate(591,142)"/>
<path d="M0 0 C0 0.66 0 1.32 0 2 C-2.3125 2.625 -2.3125 2.625 -5 3 C-5.99 2.34 -6.98 1.68 -8 1 C-3.375 -1.125 -3.375 -1.125 0 0 Z " fill="#282832" transform="translate(850,254)"/>
<path d="M0 0 C0.99 0.33 1.98 0.66 3 1 C2.67 1.99 2.34 2.98 2 4 C-0.31 3.67 -2.62 3.34 -5 3 C-2 1 -2 1 0 0 Z " fill="#2A2A36" transform="translate(1043,253)"/>
<path d="M0 0 C1.485 0.99 1.485 0.99 3 2 C3.1875 4.625 3.1875 4.625 3 7 C2.01 7.495 2.01 7.495 1 8 C-0.35439668 5.29120665 -0.06501451 2.99066732 0 0 Z " fill="#252430" transform="translate(670,243)"/>
<path d="M0 0 C0.99 0 1.98 0 3 0 C3 3.66666667 3 7.33333333 3 11 C2.34 11 1.68 11 1 11 C0.67 7.37 0.34 3.74 0 0 Z " fill="#333242" transform="translate(1061,241)"/>
<path d="M0 0 C1.32 0 2.64 0 4 0 C4 0.99 4 1.98 4 3 C1.03 3 -1.94 3 -5 3 C-3.68 2.34 -2.36 1.68 -1 1 C-0.67 0.67 -0.34 0.34 0 0 Z " fill="#1F1D2A" transform="translate(934,237)"/>
<path d="M0 0 C2.64 0 5.28 0 8 0 C8 0.99 8 1.98 8 3 C6.35 3 4.7 3 3 3 C3 2.34 3 1.68 3 1 C2.01 0.67 1.02 0.34 0 0 Z " fill="#22212D" transform="translate(897,237)"/>
<path d="M0 0 C2.45823172 3.68734758 3.01242616 6.69699971 4 11 C2.68 10.34 1.36 9.68 0 9 C0 6.03 0 3.06 0 0 Z " fill="#E6D5F7" transform="translate(218,201)"/>
<path d="M0 0 C1.65 0 3.3 0 5 0 C4.6875 2.875 4.6875 2.875 4 6 C3.01 6.66 2.02 7.32 1 8 C0.67 7.01 0.34 6.02 0 5 C0.99 4.01 1.98 3.02 3 2 C2.01 1.34 1.02 0.68 0 0 Z " fill="#1C1B29" transform="translate(815,150)"/>
<path d="M0 0 C0.66 0 1.32 0 2 0 C2 0.66 2 1.32 2 2 C1.01 2.495 1.01 2.495 0 3 C-0.65555119 5.52733235 -0.65555119 5.52733235 -1 8 C-1.99 7.67 -2.98 7.34 -4 7 C-2.92598892 4.08482708 -2.22189824 2.22189824 0 0 Z " fill="#E2E2E6" transform="translate(856,117)"/>
<path d="M0 0 C2.86697492 1.28519565 4.97607712 2.57129254 7 5 C7 5.66 7 6.32 7 7 C6.01 6.67 5.02 6.34 4 6 C4 5.34 4 4.68 4 4 C2.68 3.34 1.36 2.68 0 2 C0 1.34 0 0.68 0 0 Z " fill="#EDDEFB" transform="translate(1024,99)"/>
<path d="M0 0 C0.33 0.66 0.66 1.32 1 2 C2.32 2 3.64 2 5 2 C5 2.99 5 3.98 5 5 C3.35 5 1.7 5 0 5 C0 3.35 0 1.7 0 0 Z " fill="#272735" transform="translate(660,253)"/>
<path d="M0 0 C2 2 2 2 2.125 4.625 C2.08375 5.40875 2.0425 6.1925 2 7 C1.01 7 0.02 7 -1 7 C-0.67 4.69 -0.34 2.38 0 0 Z " fill="#E1E0E8" transform="translate(872,242)"/>
</svg>
